<svg width="31" height="36" viewBox="0 0 31 36" fill="none" xmlns="http://www.w3.org/2000/svg">
    <path
        d="M25 13C25 24 30 23 30 28C30 28 30 30 28 30H2C0 30 0 28 0 28C0 23 5 24 5 13C5 7.478 9.477 3 15 3C20.523 3 25 7.478 25 13Z"
        fill="#FFAC33" />
    <path
        d="M15 6C16.6569 6 18 4.65685 18 3C18 1.34315 16.6569 0 15 0C13.3431 0 12 1.34315 12 3C12 4.65685 13.3431 6 15 6Z"
        fill="#FFAC33" />
    <path d="M15 36C17.209 36 19 34.209 19 32H11C11 34.209 12.791 36 15 36Z" fill="#FFAC33" />
    <path
        d="M28.003 33.0032L0.99699 5.99723C0.44599 5.44623 0.44599 4.55423 0.99699 4.00323L1.00299 3.99723C1.55399 3.44623 2.44599 3.44623 2.99699 3.99723L30.003 31.0032C30.554 31.5542 30.554 32.4462 30.003 32.9972L29.997 33.0032C29.446 33.5542 28.554 33.5542 28.003 33.0032Z"
        fill="#DD2E44" />
</svg>