<svg width="30" height="30" viewBox="0 0 30 30" fill="none" xmlns="http://www.w3.org/2000/svg">
    <path
        d="M15 29.9186C23.2843 29.9186 30 26.1877 30 21.5853C30 16.9829 23.2843 13.252 15 13.252C6.71573 13.252 0 16.9829 0 21.5853C0 26.1877 6.71573 29.9186 15 29.9186Z"
        fill="#8899A6" />
    <path
        d="M15 28.4601C23.2843 28.4601 30 24.7292 30 20.1268C30 15.5244 23.2843 11.7935 15 11.7935C6.71573 11.7935 0 15.5244 0 20.1268C0 24.7292 6.71573 28.4601 15 28.4601Z"
        fill="#CCD6DD" />
    <path
        d="M27.2291 19.6563C27.2291 23.2063 21.7541 26.083 14.9999 26.083C8.24575 26.083 2.77075 23.2063 2.77075 19.6563C2.77075 16.108 8.24575 13.2305 14.9999 13.2305C21.7533 13.2305 27.2291 16.108 27.2291 19.6563Z"
        fill="#DD2E44" />
    <path
        d="M26.8608 18.7044C26.8608 26.9161 3.13916 26.9161 3.13916 18.7044V11.4053H26.8608V18.7044Z"
        fill="#F4ABBA" />
    <path
        d="M14.9867 15.0571C7.5 15.0571 3.13833 11.6138 3.13833 11.6138C3.13833 11.6138 3.125 12.3838 3.125 13.0179C3.125 13.0179 3.15167 17.0996 5.26833 17.0996C7.3175 17.0996 7.16833 19.0563 8.46333 19.2588C9.7475 19.4596 9.89 18.4771 11.4842 18.4771C13.0783 18.4771 13.3592 20.2321 14.9867 20.2321C16.8942 20.2321 17.0508 18.4771 18.6442 18.4771C20.2375 18.4771 20.4208 19.4971 21.4658 19.2146C22.7217 18.8746 22.1442 17.1004 24.705 17.1004C26.8217 17.1004 26.8742 13.2271 26.8742 13.2271C26.8742 12.5938 26.86 11.6146 26.86 11.6146C26.86 11.6146 22.4742 15.0571 14.9867 15.0571V15.0571Z"
        fill="#DD2E44" />
    <path
        d="M27.2291 10.5331C27.2291 14.0823 21.7541 16.9598 14.9999 16.9598C8.24575 16.9598 2.77075 14.0823 2.77075 10.5331C2.77075 6.98395 8.24575 4.10645 14.9999 4.10645C21.7533 4.10645 27.2291 6.98395 27.2291 10.5331Z"
        fill="#EA596E" />
    <path
        d="M21.3866 11.4055C20.8825 11.4055 20.4741 10.9972 20.4741 10.493V4.10635C20.4741 3.60218 20.8825 3.19385 21.3866 3.19385C21.8908 3.19385 22.2991 3.60218 22.2991 4.10635V10.493C22.2991 10.9972 21.8908 11.4055 21.3866 11.4055Z"
        fill="#FFF8E8" />
    <path
        d="M21.3866 5.47458C20.4183 5.47458 19.6566 5.03125 19.3491 4.28875C19.0825 3.64458 18.95 2.24708 21.0641 0.13375C21.2425 -0.0445833 21.5308 -0.0445833 21.7091 0.13375C23.8233 2.24792 23.6908 3.64458 23.4241 4.28875C23.1166 5.03125 22.355 5.47458 21.3866 5.47458Z"
        fill="#FAAA35" />
    <path
        d="M14.9999 14.1425C14.4957 14.1425 14.0874 13.7341 14.0874 13.23V6.84414C14.0874 6.33997 14.4957 5.93164 14.9999 5.93164C15.5041 5.93164 15.9124 6.33997 15.9124 6.84414V13.2308C15.9124 13.7341 15.5041 14.1425 14.9999 14.1425Z"
        fill="#FFF8E8" />
    <path
        d="M15 8.21238C14.0317 8.21238 13.27 7.76904 12.9625 7.02654C12.695 6.38238 12.5634 4.98488 14.6775 2.87154C14.8559 2.69321 15.1442 2.69321 15.3225 2.87154C17.4367 4.98571 17.3042 6.38238 17.0375 7.02654C16.73 7.76904 15.9684 8.21238 15 8.21238Z"
        fill="#FAAA35" />
    <path
        d="M8.61318 11.4055C8.10902 11.4055 7.70068 10.9972 7.70068 10.493V4.10635C7.70068 3.60218 8.10902 3.19385 8.61318 3.19385C9.11735 3.19385 9.52568 3.60218 9.52568 4.10635V10.493C9.52568 10.9972 9.11735 11.4055 8.61318 11.4055Z"
        fill="#FFF8E8" />
    <path
        d="M8.61333 5.47458C7.645 5.47458 6.88333 5.03125 6.57583 4.28875C6.30833 3.64458 6.17666 2.24708 8.29083 0.13375C8.46916 -0.0445833 8.7575 -0.0445833 8.93583 0.13375C11.05 2.24792 10.9175 3.64458 10.6508 4.28875C10.3433 5.03125 9.58166 5.47458 8.61333 5.47458Z"
        fill="#FAAA35" />
</svg>