<svg width="32" height="36" viewBox="0 0 32 36" fill="none" xmlns="http://www.w3.org/2000/svg">
    <path d="M26.8149 3.8208H28.8109V4.8208H26.8149V3.8208Z" fill="#66757F" />
    <path
        d="M0 11.8208V31.8208C0 34.0298 1.791 35.8208 4 35.8208H28C30.209 35.8208 32 34.0298 32 31.8208V11.8208H0Z"
        fill="#CCD6DD" />
    <path
        d="M28 3.8208H4C1.791 3.8208 0 5.6118 0 7.8208V12.8208H32V7.8208C32 5.6118 30.209 3.8208 28 3.8208Z"
        fill="#DD2E44" />
    <path
        d="M6.83594 8.55222C6.13394 8.55222 5.56494 7.88622 5.56494 7.06322C5.56494 6.24122 6.13394 5.57422 6.83594 5.57422C7.53694 5.57422 8.10594 6.24122 8.10594 7.06322C8.10594 7.88522 7.53694 8.55222 6.83594 8.55222ZM12.8359 8.55222C12.1339 8.55222 11.5649 7.88622 11.5649 7.06322C11.5649 6.24122 12.1339 5.57422 12.8359 5.57422C13.5369 5.57422 14.1059 6.24122 14.1059 7.06322C14.1059 7.88522 13.5369 8.55222 12.8359 8.55222ZM18.8359 8.55222C18.1339 8.55222 17.5649 7.88622 17.5649 7.06322C17.5649 6.24122 18.1339 5.57422 18.8359 5.57422C19.5369 5.57422 20.1069 6.24122 20.1069 7.06322C20.1059 7.88522 19.5369 8.55222 18.8359 8.55222ZM24.8359 8.55222C24.1339 8.55222 23.5649 7.88622 23.5649 7.06322C23.5649 6.24122 24.1339 5.57422 24.8359 5.57422C25.5369 5.57422 26.1069 6.24122 26.1069 7.06322C26.1059 7.88522 25.5369 8.55222 24.8359 8.55222Z"
        fill="#292F33" />
    <path
        d="M25.3149 0C24.0379 0 22.9319 0.802 22.3209 1.97C21.7149 0.827 20.6039 0 19.3149 0C18.0379 0 16.9319 0.802 16.3209 1.97C15.7149 0.827 14.6039 0 13.3149 0C12.0379 0 10.9319 0.802 10.3209 1.97C9.71494 0.827 8.60394 0 7.31494 0C5.38094 0 3.81494 1.819 3.81494 4.005C3.81494 5.859 4.85994 7.376 6.38394 7.931C7.14294 8.206 7.60794 7.484 7.54294 6.905C7.48794 6.425 7.16894 6.112 6.81394 5.887C6.32894 5.58 5.81394 4.879 5.81394 4.01C5.81394 2.906 6.48494 1.915 7.31394 1.915C8.14294 1.915 8.81394 2.82 8.81394 3.82H9.82994C9.82694 3.882 9.81394 3.941 9.81394 4.004C9.81394 5.858 10.8589 7.375 12.3829 7.93C13.1419 8.205 13.6069 7.483 13.5419 6.904C13.4869 6.425 13.1679 6.112 12.8129 5.887C12.3279 5.58 11.8129 4.879 11.8129 4.01C11.8129 2.906 12.4839 1.915 13.3129 1.915C14.1419 1.915 14.8149 2.821 14.8149 3.821H15.8309C15.8279 3.883 15.8149 3.942 15.8149 4.005C15.8149 5.859 16.8599 7.376 18.3839 7.931C19.1429 8.206 19.6079 7.484 19.5429 6.905C19.4879 6.426 19.1689 6.113 18.8139 5.888C18.3289 5.581 17.8139 4.88 17.8139 4.011C17.8139 2.907 18.4849 1.916 19.3139 1.916C20.1429 1.916 20.8149 2.821 20.8149 3.821H21.8309C21.8279 3.883 21.8149 3.942 21.8149 4.005C21.8149 5.859 22.8599 7.376 24.3839 7.931C25.1429 8.206 25.6079 7.484 25.5429 6.905C25.4879 6.426 25.1689 6.113 24.8139 5.888C24.3289 5.581 23.8139 4.88 23.8139 4.011C23.8139 2.907 24.4849 1.916 25.3139 1.916C26.1429 1.916 26.8149 2.821 26.8149 3.821H28.8109C28.7899 1.821 27.2349 0 25.3149 0Z"
        fill="#66757F" />
    <path
        d="M9 14.8208H13V18.8208H9V14.8208ZM14 14.8208H18V18.8208H14V14.8208ZM19 14.8208H23V18.8208H19V14.8208ZM24 14.8208H28V18.8208H24V14.8208ZM4 19.8208H8V23.8208H4V19.8208ZM9 19.8208H13V23.8208H9V19.8208ZM14 19.8208H18V23.8208H14V19.8208ZM19 19.8208H23V23.8208H19V19.8208ZM24 19.8208H28V23.8208H24V19.8208ZM4 24.8208H8V28.8208H4V24.8208ZM9 24.8208H13V28.8208H9V24.8208ZM14 24.8208H18V28.8208H14V24.8208ZM19 24.8208H23V28.8208H19V24.8208ZM24 24.8208H28V28.8208H24V24.8208ZM4 29.8208H8V33.8208H4V29.8208ZM9 29.8208H13V33.8208H9V29.8208ZM14 29.8208H18V33.8208H14V29.8208Z"
        fill="white" />
</svg>