<svg width="375" height="310" viewBox="0 0 375 310" fill="none" xmlns="http://www.w3.org/2000/svg">
    <g clip-path="url(#clip0_12_1000)">
        <path opacity="0.1"
            d="M0.169867 159.116C1.30474 171.061 8.41631 181.876 12.7653 193.254C18.9174 209.412 19.4977 227.01 14.422 243.502C13.3865 246.89 12.1109 250.291 12.1067 253.762C12.1067 265.73 26.4583 273.673 39.4968 278.95C72.6356 292.319 107.199 302.242 142.584 308.547C154.156 310.621 168.607 311.522 175.93 303.71C179.442 299.959 180.295 295.051 182.876 290.856C189.457 280.127 205.47 275.959 219.842 273.57C237.171 270.692 254.663 268.779 272.228 267.84C289.91 266.895 309.989 266.077 321.707 255.041C329.162 248.028 331.324 238.35 331.618 229.211C332.592 199.225 317.511 166.775 336.866 140.803C344.984 129.909 358.23 121.955 366.273 111.033C377.932 95.204 376.926 75.1004 369.032 58.232C361.137 41.3635 347.15 27.0218 333.37 12.9713C328.814 8.32327 323.952 3.49022 317.101 1.33346C309.977 -0.909898 301.9 0.121256 294.263 1.17996C259.521 6.0012 223.437 11.2514 194.315 27.805C179.844 36.0267 167.758 46.6964 154.848 56.4924C126.961 77.6783 94.6499 97.2506 57.8246 105.614C27.9079 112.415 -2.52234 130.747 0.169867 159.116Z"
            fill="#E63946" />
        <path d="M113.868 74.0897C113.868 74.0897 89.8451 70.0595 113.868 100.963V74.0897Z"
            fill="#FFBEC7" />
        <path
            d="M278.797 230.566C278.797 230.566 275.318 226.811 265.713 229.074C261.012 224.816 255.155 218.644 254.944 214.169C252.989 214.78 251.08 215.468 249.203 216.224C241.069 207.589 230.644 193.885 231.087 180.692C231.82 159.164 216.263 121.94 216.263 121.94C216.263 121.94 217.547 106.76 215.141 94.213C213.509 85.7119 210.17 78.423 203.614 77.868C202.601 77.7679 201.577 77.8738 200.611 78.1789C188.496 82.1147 196.022 118.862 196.022 118.862L185.539 149.608L124.086 180.7C124.086 180.7 161.317 227.161 179.392 228.869C179.392 228.869 192.708 242.141 202.301 253.79C198.913 258.12 197.103 260.985 197.103 260.985L206.389 273.548C202.574 278.416 197.206 287.94 209.031 292.411C225.296 298.559 261.082 270.549 261.082 270.549C261.082 270.549 292.171 251.067 278.797 230.566Z"
            fill="url(#paint0_linear_12_1000)" />
        <path d="M113.06 73.9244C113.06 73.9244 88.4784 69.8234 113.06 101.254V73.9244Z"
            fill="url(#paint1_linear_12_1000)" />
        <path
            d="M107.456 103.139C107.456 103.139 98.4685 103.139 98.6673 113.695C98.6861 115.465 99.2862 117.185 100.384 118.615C101.481 120.045 103.021 121.114 104.789 121.672C106.701 122.271 108.785 122.13 110.588 121.279C112.007 120.624 113.246 119.663 114.205 118.471C115.163 117.28 115.814 115.892 116.107 114.418C116.399 112.944 116.324 111.426 115.888 109.985C115.452 108.543 114.666 107.219 113.595 106.118C111.969 104.485 109.802 103.433 107.456 103.139Z"
            fill="url(#paint2_linear_12_1000)" />
        <path
            d="M111.805 124.565C111.014 124.192 110.145 123.992 109.262 123.979C109.262 123.979 100.585 126.029 102.035 135.935C102.035 135.935 102.759 143.11 110.347 142.083C115.55 141.378 116.167 134.896 116.042 130.89C116.014 129.568 115.604 128.279 114.856 127.163C114.109 126.048 113.054 125.149 111.805 124.565Z"
            fill="url(#paint3_linear_12_1000)" />
        <path
            d="M112.17 150.871C111.503 150.514 110.756 150.313 109.991 150.285C109.052 150.849 108.158 151.478 107.316 152.166C105.903 153.29 104.65 154.582 103.588 156.011C100.316 160.514 99.2514 167.13 111.457 173.86V164.973C112.973 163.634 114.249 162.07 115.235 160.341C116.144 158.698 116.332 156.78 115.758 155.005C115.184 153.231 113.894 151.745 112.17 150.871Z"
            fill="url(#paint4_linear_12_1000)" />
        <path
            d="M196.055 257.994C196.055 257.994 218.326 222.726 252.612 211.977L250.843 231.124L222.43 257.997L196.055 257.994Z"
            fill="#DFE5EE" />
        <path opacity="0.05"
            d="M196.055 257.994C196.055 257.994 218.326 222.726 252.612 211.977L250.843 231.124L222.43 257.997L196.055 257.994Z"
            fill="black" />
        <path
            d="M207.719 267.4C207.719 267.4 191.81 282.851 207.719 288.897C223.627 294.942 258.622 267.4 258.622 267.4C258.622 267.4 289.023 248.253 275.943 228.098C275.943 228.098 261.099 211.973 207.719 267.4Z"
            fill="#E63946" />
        <path
            d="M256.149 222.722C256.149 222.722 209.839 273.78 210.547 266.381C210.755 264.232 208.145 259.95 204.335 254.967C195.078 242.802 178.73 226.421 178.73 226.421C161.056 224.741 124.645 179.059 124.645 179.059L184.74 148.49L194.991 118.26C194.991 118.26 187.635 82.1225 199.48 78.2537C200.425 77.9533 201.426 77.8486 202.417 77.9467C202.852 77.9825 203.283 78.0523 203.705 78.1553C209.251 79.4816 212.175 86.1605 213.646 93.8981C213.646 93.9414 213.666 93.9886 213.675 94.0319C216.027 106.37 214.772 121.295 214.772 121.295C214.772 121.295 229.973 157.897 229.269 179.071C228.797 193.239 240.994 208.006 249.112 216.22C253.138 220.266 256.149 222.722 256.149 222.722Z"
            fill="#FFBEC7" />
        <path opacity="0.05"
            d="M192.166 195.514C192.166 195.514 192.874 163.603 186.864 155.543C180.854 147.483 132.415 181.074 132.415 181.074C132.415 181.074 182.623 186.781 192.166 195.514Z"
            fill="black" />
        <path opacity="0.05"
            d="M207.719 206.951C207.719 206.951 229.546 194.688 229.256 174.954L207.719 206.951Z"
            fill="black" />
        <path opacity="0.05"
            d="M196.055 218.692C196.055 218.692 190.045 226.752 178.734 226.417L196.055 218.692Z"
            fill="black" />
        <path opacity="0.05"
            d="M256.149 222.722C256.149 222.722 209.839 273.78 210.547 266.381C210.754 264.232 208.145 259.95 204.334 254.967C229.985 246.608 243.91 225.752 249.12 216.212C253.138 220.266 256.149 222.722 256.149 222.722Z"
            fill="black" />
        <path
            d="M268.724 232.03C268.723 232.128 268.712 232.225 268.691 232.321C267.978 235.721 267.448 239.149 266.864 242.577C266.683 243.667 266.406 244.74 266.036 245.785C265.019 248.569 263.501 251.165 261.55 253.456C247.468 270.411 211.608 279.152 211.608 279.152L211.475 278.967L196.055 257.99C236.707 250.602 252.612 211.973 252.612 211.973C252.919 218.424 265.075 228.452 268.165 230.9C268.338 231.039 268.477 231.212 268.573 231.407C268.669 231.602 268.719 231.814 268.72 232.03H268.724Z"
            fill="#DFE5EE" />
        <path opacity="0.5"
            d="M213.662 93.8863C203.398 92.6387 202.566 84.295 203.369 78.2576C203.477 78.2222 203.593 78.1868 203.705 78.1592C209.251 79.4856 212.175 86.1645 213.662 93.8863Z"
            fill="#EFF4F8" />
        <path opacity="0.05"
            d="M268.724 232.03C268.723 232.128 268.712 232.225 268.691 232.321C267.978 235.721 267.448 239.149 266.864 242.577C266.683 243.667 266.406 244.74 266.036 245.785L265.162 248.083L263.041 251.425L261.55 253.44C247.468 270.395 211.608 279.136 211.608 279.136L211.475 278.951C212.598 278.51 236.765 269.021 246.428 260.493C255.598 252.405 266.889 233.939 268.504 231.258C268.65 231.492 268.726 231.758 268.724 232.03Z"
            fill="black" />
        <path
            d="M190.679 21.0167H118.577C117.641 21.0151 116.713 21.1889 115.847 21.528C114.981 21.8672 114.194 22.3651 113.53 22.9933C112.867 23.6216 112.34 24.3678 111.98 25.1895C111.62 26.0112 111.434 26.8922 111.433 27.7822V177.811C111.434 178.701 111.62 179.582 111.98 180.404C112.34 181.226 112.867 181.972 113.53 182.6C114.194 183.228 114.981 183.726 115.847 184.065C116.713 184.405 117.641 184.578 118.577 184.577H190.679C191.615 184.578 192.543 184.405 193.409 184.065C194.275 183.726 195.062 183.228 195.726 182.6C196.389 181.972 196.916 181.226 197.276 180.404C197.636 179.582 197.822 178.701 197.824 177.811V27.7782C197.819 25.9815 197.064 24.2599 195.724 22.992C194.385 21.724 192.57 21.0135 190.679 21.0167Z"
            fill="url(#paint5_linear_12_1000)" />
        <path
            d="M192.605 22.2682H116.647C114.131 22.2682 112.091 24.2065 112.091 26.5975V179.614C112.091 182.005 114.131 183.943 116.647 183.943H192.605C195.121 183.943 197.161 182.005 197.161 179.614V26.5975C197.161 24.2065 195.121 22.2682 192.605 22.2682Z"
            fill="#535461" />
        <path d="M190.898 37.3105H118.358V168.905H190.898V37.3105Z" fill="#F1F1F4" />
        <path
            d="M146.055 30.4152C146.418 30.4152 146.713 30.135 146.713 29.7894C146.713 29.4438 146.418 29.1636 146.055 29.1636C145.691 29.1636 145.396 29.4438 145.396 29.7894C145.396 30.135 145.691 30.4152 146.055 30.4152Z"
            fill="white" />
        <path
            d="M163.446 29.1636H149.766C149.537 29.1636 149.351 29.3398 149.351 29.5572V30.0216C149.351 30.239 149.537 30.4152 149.766 30.4152H163.446C163.675 30.4152 163.86 30.239 163.86 30.0216V29.5572C163.86 29.3398 163.675 29.1636 163.446 29.1636Z"
            fill="white" />
        <path
            d="M154.297 179.559C156.847 179.559 158.915 177.594 158.915 175.171C158.915 172.747 156.847 170.782 154.297 170.782C151.746 170.782 149.679 172.747 149.679 175.171C149.679 177.594 151.746 179.559 154.297 179.559Z"
            fill="white" />
        <path
            d="M108.392 102.809C108.392 102.809 99.5992 102.809 99.798 113.187C99.8136 114.923 100.398 116.612 101.471 118.018C102.544 119.424 104.051 120.477 105.783 121.031C107.651 121.614 109.686 121.473 111.445 120.637C113.353 119.742 114.909 118.289 115.883 116.491C116.857 114.694 117.199 112.646 116.857 110.65C116.515 108.654 115.508 106.816 113.985 105.404C112.461 103.992 110.501 103.083 108.392 102.809Z"
            fill="#FFBEC7" />
        <path opacity="0.5"
            d="M108.393 108.165C108.393 108.165 100.262 113.541 107.332 118.241C107.328 118.26 106.62 108.854 108.393 108.165Z"
            fill="#EFF4F8" />
        <path
            d="M110.157 123.298C110.157 123.298 101.674 125.313 103.087 135.054C103.087 135.054 103.795 142.107 111.217 141.099C116.308 140.406 116.908 134.015 116.788 130.079C116.763 128.781 116.364 127.515 115.634 126.419C114.903 125.322 113.87 124.437 112.646 123.861C111.871 123.498 111.021 123.306 110.157 123.298Z"
            fill="#FFBEC7" />
        <path opacity="0.5"
            d="M109.801 127.663C109.801 127.663 101.67 130.685 109.801 139.076C109.801 139.084 105.907 131.024 109.801 127.663Z"
            fill="#EFF4F8" />
        <path
            d="M112.278 163.607V172.341C100.349 165.729 101.389 159.219 104.59 154.795C105.632 153.391 106.862 152.121 108.248 151.017C109.072 150.341 109.946 149.722 110.865 149.167C111.615 149.195 112.346 149.394 112.998 149.746C114.683 150.615 115.939 152.079 116.496 153.822C117.052 155.565 116.864 157.446 115.972 159.058C115.008 160.754 113.76 162.291 112.278 163.607Z"
            fill="#FFBEC7" />
        <path opacity="0.5"
            d="M106.268 159.239C106.268 159.239 105.348 157.137 104.59 154.791C105.632 153.387 106.862 152.117 108.248 151.013C110.579 154.658 106.268 159.239 106.268 159.239Z"
            fill="#EFF4F8" />
        <path opacity="0.05"
            d="M213.554 121.452C213.554 121.452 204.364 131.193 201.543 132.2L213.554 121.452Z"
            fill="black" />
        <path
            d="M178.187 82.7365H143.395V83.0946C142.68 81.0186 141.209 79.253 139.247 78.1148C137.285 76.9766 134.96 76.5404 132.69 76.8846C130.42 77.2288 128.353 78.3308 126.861 79.9927C125.369 81.6546 124.549 83.7675 124.549 85.9519C124.549 88.1364 125.369 90.2493 126.861 91.9112C128.353 93.5731 130.42 94.6751 132.69 95.0192C134.96 95.3634 137.285 94.9273 139.247 93.7891C141.209 92.6509 142.68 90.8853 143.395 88.8093V89.1674H178.187L182.536 85.9716L178.187 82.7365ZM134.213 93.3629C132.671 93.3629 131.164 92.9285 129.882 92.1146C128.6 91.3007 127.601 90.1438 127.011 88.7904C126.421 87.4369 126.267 85.9476 126.568 84.5108C126.869 83.074 127.611 81.7542 128.701 80.7183C129.791 79.6824 131.18 78.977 132.692 78.6912C134.204 78.4054 135.772 78.5521 137.196 79.1127C138.62 79.6733 139.838 80.6227 140.694 81.8408C141.551 83.0588 142.008 84.4909 142.008 85.9559C142.007 86.928 141.805 87.8906 141.413 88.7886C141.021 89.6866 140.447 90.5024 139.723 91.1895C138.999 91.8765 138.14 92.4214 137.195 92.793C136.249 93.1645 135.236 93.3555 134.213 93.355V93.3629Z"
            fill="url(#paint6_linear_12_1000)" />
        <path
            d="M134.528 76.9156C132.644 76.9156 130.802 77.4465 129.235 78.4411C127.669 79.4358 126.448 80.8496 125.727 82.5036C125.006 84.1577 124.817 85.9777 125.185 87.7337C125.552 89.4896 126.459 91.1026 127.792 92.3685C129.124 93.6345 130.821 94.4966 132.669 94.8459C134.517 95.1952 136.433 95.0159 138.173 94.3308C139.914 93.6456 141.402 92.4854 142.449 90.9968C143.495 89.5082 144.054 87.758 144.054 85.9677C144.054 83.5669 143.05 81.2645 141.264 79.5669C139.477 77.8693 137.054 76.9156 134.528 76.9156ZM134.528 78.663C136.044 78.663 137.526 79.0903 138.787 79.8908C140.048 80.6913 141.03 81.829 141.611 83.1602C142.191 84.4913 142.343 85.9561 142.047 87.3693C141.751 88.7824 141.021 90.0805 139.949 91.0993C138.877 92.1181 137.511 92.8119 136.023 93.093C134.536 93.3741 132.995 93.2299 131.594 92.6785C130.193 92.1271 128.996 91.1934 128.153 89.9954C127.311 88.7973 126.861 87.3889 126.861 85.948C126.858 84.9899 127.055 84.0406 127.439 83.1547C127.823 82.2688 128.387 81.4637 129.1 80.7854C129.812 80.1072 130.658 79.5692 131.589 79.2023C132.521 78.8354 133.519 78.6468 134.528 78.6473"
            fill="#00DD90" />
        <path d="M177.781 89.1123H143.557V82.7877H177.781L182.055 85.9677L177.781 89.1123Z"
            fill="#00DD90" />
        <path
            d="M178.187 106.673H143.395V107.032C142.68 104.956 141.209 103.19 139.247 102.052C137.285 100.914 134.96 100.477 132.69 100.822C130.42 101.166 128.353 102.268 126.861 103.93C125.369 105.592 124.549 107.704 124.549 109.889C124.549 112.073 125.369 114.186 126.861 115.848C128.353 117.51 130.42 118.612 132.69 118.956C134.96 119.3 137.285 118.864 139.247 117.726C141.209 116.588 142.68 114.822 143.395 112.746V113.104H178.187L182.536 109.909L178.187 106.673ZM134.213 117.3C132.671 117.3 131.164 116.865 129.882 116.052C128.6 115.238 127.601 114.081 127.011 112.727C126.421 111.374 126.267 109.885 126.568 108.448C126.869 107.011 127.611 105.691 128.701 104.655C129.791 103.619 131.18 102.914 132.692 102.628C134.204 102.342 135.772 102.489 137.196 103.05C138.62 103.61 139.838 104.56 140.694 105.778C141.551 106.996 142.008 108.428 142.008 109.893C142.007 110.865 141.805 111.828 141.413 112.726C141.021 113.624 140.447 114.439 139.723 115.126C138.999 115.814 138.14 116.358 137.195 116.73C136.249 117.102 135.236 117.292 134.213 117.292V117.3Z"
            fill="url(#paint7_linear_12_1000)" />
        <path
            d="M134.528 100.853C132.644 100.853 130.802 101.383 129.235 102.378C127.669 103.373 126.448 104.787 125.727 106.441C125.006 108.095 124.817 109.915 125.185 111.671C125.552 113.427 126.459 115.04 127.792 116.305C129.124 117.571 130.821 118.434 132.669 118.783C134.517 119.132 136.433 118.953 138.173 118.268C139.914 117.583 141.402 116.422 142.449 114.934C143.495 113.445 144.054 111.695 144.054 109.905C144.054 107.504 143.05 105.201 141.264 103.504C139.477 101.806 137.054 100.853 134.528 100.853ZM134.528 102.6C136.044 102.6 137.526 103.027 138.787 103.828C140.048 104.628 141.03 105.766 141.611 107.097C142.191 108.428 142.343 109.893 142.047 111.306C141.751 112.719 141.021 114.017 139.949 115.036C138.877 116.055 137.511 116.749 136.023 117.03C134.536 117.311 132.995 117.167 131.594 116.615C130.193 116.064 128.996 115.13 128.153 113.932C127.311 112.734 126.861 111.326 126.861 109.885C126.861 108.928 127.059 107.981 127.444 107.097C127.829 106.212 128.393 105.409 129.105 104.733C129.817 104.056 130.663 103.519 131.593 103.153C132.524 102.788 133.521 102.599 134.528 102.6Z"
            fill="#FF5288" />
        <path d="M177.781 113.049H143.557V106.725H177.781L182.055 109.905L177.781 113.049Z"
            fill="#FF5288" />
        <path
            d="M145.048 79.5682L143.681 78.2537C143.614 78.1894 143.534 78.1385 143.446 78.1037C143.358 78.0689 143.263 78.051 143.168 78.051C143.072 78.051 142.978 78.0689 142.89 78.1037C142.801 78.1385 142.721 78.1894 142.654 78.2537L134.097 86.3219L130.477 82.8545C130.41 82.7903 130.33 82.7393 130.241 82.7045C130.153 82.6697 130.059 82.6518 129.963 82.6518C129.868 82.6518 129.773 82.6697 129.685 82.7045C129.597 82.7393 129.517 82.7903 129.45 82.8545L128.079 84.1573C128.011 84.2213 127.958 84.2973 127.921 84.3811C127.884 84.4648 127.865 84.5546 127.865 84.6453C127.865 84.736 127.884 84.8258 127.921 84.9095C127.958 84.9933 128.011 85.0693 128.079 85.1333L133.575 90.3993C133.642 90.4635 133.722 90.5145 133.811 90.5493C133.899 90.5841 133.993 90.602 134.089 90.602C134.184 90.602 134.279 90.5841 134.367 90.5493C134.455 90.5145 134.535 90.4635 134.602 90.3993L145.048 80.56C145.116 80.496 145.169 80.42 145.206 80.3362C145.243 80.2525 145.261 80.1627 145.261 80.072C145.261 79.9813 145.243 79.8915 145.206 79.8078C145.169 79.724 145.116 79.648 145.048 79.584V79.5682Z"
            fill="url(#paint8_linear_12_1000)" />
        <path
            d="M144.642 79.4029L143.342 78.1592C143.212 78.0362 143.036 77.967 142.853 77.967C142.67 77.967 142.494 78.0362 142.364 78.1592L134.213 85.8417L130.759 82.5318C130.629 82.4087 130.453 82.3396 130.27 82.3396C130.087 82.3396 129.911 82.4087 129.781 82.5318L128.481 83.7637C128.351 83.8869 128.278 84.0539 128.278 84.2281C128.278 84.4022 128.351 84.5693 128.481 84.6925L133.716 89.7066C133.846 89.8296 134.021 89.8988 134.205 89.8988C134.388 89.8988 134.564 89.8296 134.693 89.7066L144.634 80.3278C144.763 80.2046 144.836 80.0375 144.836 79.8634C144.836 79.6892 144.763 79.5222 144.634 79.399L144.642 79.4029Z"
            fill="#00DD90" />
    </g>
    <defs>
        <linearGradient id="paint0_linear_12_1000" x1="203.113" y1="293.285" x2="203.113"
            y2="77.8247" gradientUnits="userSpaceOnUse">
            <stop stop-color="#808080" stop-opacity="0.25" />
            <stop offset="0.54" stop-color="#808080" stop-opacity="0.12" />
            <stop offset="1" stop-color="#808080" stop-opacity="0.1" />
        </linearGradient>
        <linearGradient id="paint1_linear_12_1000" x1="4549.61" y1="8695.25" x2="4549.61"
            y2="6772.92" gradientUnits="userSpaceOnUse">
            <stop stop-color="#808080" stop-opacity="0.25" />
            <stop offset="0.54" stop-color="#808080" stop-opacity="0.12" />
            <stop offset="1" stop-color="#808080" stop-opacity="0.1" />
        </linearGradient>
        <linearGradient id="paint2_linear_12_1000" x1="7265.32" y1="7024.8" x2="7265.32"
            y2="6117.28" gradientUnits="userSpaceOnUse">
            <stop stop-color="#808080" stop-opacity="0.25" />
            <stop offset="0.54" stop-color="#808080" stop-opacity="0.12" />
            <stop offset="1" stop-color="#808080" stop-opacity="0.1" />
        </linearGradient>
        <linearGradient id="paint3_linear_12_1000" x1="5923.24" y1="7723.43" x2="5923.24"
            y2="6881.27" gradientUnits="userSpaceOnUse">
            <stop stop-color="#808080" stop-opacity="0.25" />
            <stop offset="0.54" stop-color="#808080" stop-opacity="0.12" />
            <stop offset="1" stop-color="#808080" stop-opacity="0.1" />
        </linearGradient>
        <linearGradient id="paint4_linear_12_1000" x1="6110.83" y1="11888.5" x2="6110.83"
            y2="10476.6" gradientUnits="userSpaceOnUse">
            <stop stop-color="#808080" stop-opacity="0.25" />
            <stop offset="0.54" stop-color="#808080" stop-opacity="0.12" />
            <stop offset="1" stop-color="#808080" stop-opacity="0.1" />
        </linearGradient>
        <linearGradient id="paint5_linear_12_1000" x1="45089.1" y1="85913" x2="45089.1" y2="17942.3"
            gradientUnits="userSpaceOnUse">
            <stop stop-color="#808080" stop-opacity="0.25" />
            <stop offset="0.54" stop-color="#808080" stop-opacity="0.12" />
            <stop offset="1" stop-color="#808080" stop-opacity="0.1" />
        </linearGradient>
        <linearGradient id="paint6_linear_12_1000" x1="30162.3" y1="5547.24" x2="30162.3"
            y2="4690.19" gradientUnits="userSpaceOnUse">
            <stop stop-color="#808080" stop-opacity="0.25" />
            <stop offset="0.54" stop-color="#808080" stop-opacity="0.12" />
            <stop offset="1" stop-color="#808080" stop-opacity="0.1" />
        </linearGradient>
        <linearGradient id="paint7_linear_12_1000" x1="30162.3" y1="6688.09" x2="30162.3"
            y2="5831.04" gradientUnits="userSpaceOnUse">
            <stop stop-color="#808080" stop-opacity="0.25" />
            <stop offset="0.54" stop-color="#808080" stop-opacity="0.12" />
            <stop offset="1" stop-color="#808080" stop-opacity="0.1" />
        </linearGradient>
        <linearGradient id="paint8_linear_12_1000" x1="8425.9" y1="3672.05" x2="8425.9" y2="3272.3"
            gradientUnits="userSpaceOnUse">
            <stop stop-color="#808080" stop-opacity="0.25" />
            <stop offset="0.54" stop-color="#808080" stop-opacity="0.12" />
            <stop offset="1" stop-color="#808080" stop-opacity="0.1" />
        </linearGradient>
        <clipPath id="clip0_12_1000">
            <rect width="375" height="310" fill="white" />
        </clipPath>
    </defs>
</svg>