<svg width="30" height="30" viewBox="0 0 30 30" fill="none" xmlns="http://www.w3.org/2000/svg">
    <path
        d="M14.1667 29.9998C21.9907 29.9998 28.3333 23.6572 28.3333 15.8332C28.3333 8.00914 21.9907 1.6665 14.1667 1.6665C6.34263 1.6665 0 8.00914 0 15.8332C0 23.6572 6.34263 29.9998 14.1667 29.9998Z"
        fill="#FFCC4D" />
    <path
        d="M14.9992 23.7502C15.9197 23.7502 16.6659 22.8174 16.6659 21.6668C16.6659 20.5162 15.9197 19.5835 14.9992 19.5835C14.0787 19.5835 13.3325 20.5162 13.3325 21.6668C13.3325 22.8174 14.0787 23.7502 14.9992 23.7502Z"
        fill="#664500" />
    <path
        d="M6.75935 17.8189C6.60768 17.8189 6.45351 17.7772 6.31601 17.6905C5.92685 17.4455 5.81018 16.9314 6.05518 16.5414C6.81851 15.3305 9.13935 13.2597 12.4635 14.073C12.9102 14.1822 13.1835 14.6339 13.0743 15.0805C12.9643 15.5272 12.511 15.7989 12.0668 15.6914C9.06351 14.9564 7.48185 17.4047 7.46601 17.4297C7.30685 17.6814 7.03601 17.8189 6.75935 17.8189ZM16.7368 14.7005C16.4952 14.7005 16.2568 14.5964 16.0918 14.3955C15.8002 14.0397 15.8518 13.5139 16.2085 13.2222C18.8552 11.0522 21.8435 11.9205 23.0543 12.6839C23.4435 12.9289 23.5602 13.4439 23.3143 13.833C23.0702 14.2205 22.5577 14.3389 22.1677 14.0955C22.0527 14.0255 19.6243 12.5764 17.2643 14.5114C17.1093 14.6389 16.9227 14.7005 16.7368 14.7005Z"
        fill="#664500" />
    <path
        d="M11.1217 26.0608C11.065 26.0608 11.0075 26.0533 10.9508 26.0375C10.6192 25.9433 10.4258 25.5983 10.52 25.2658C10.8842 23.9825 10.735 22.7417 10.1117 21.8608C9.6975 21.2758 9.1075 20.9183 8.4925 20.8792C8.1475 20.8583 7.88584 20.5608 7.9075 20.2167C7.92917 19.8725 8.225 19.5908 8.57 19.6325C9.56417 19.6942 10.4975 20.2433 11.1308 21.1383C11.9733 22.3292 12.1892 23.9575 11.7217 25.6058C11.6442 25.8817 11.3933 26.0608 11.1217 26.0608ZM20.3192 23.51C20.2008 23.51 20.0817 23.4767 19.9758 23.4067C19.0033 22.765 18.4592 21.6425 18.4825 20.3275C18.5067 18.965 19.1567 17.7 20.1358 17.1033C20.43 16.9233 20.8142 17.0167 20.9942 17.3125C21.1742 17.6075 21.0808 17.9908 20.785 18.1708C20.1725 18.5442 19.7483 19.42 19.7317 20.3492C19.715 21.2283 20.0558 21.9625 20.6633 22.3633C20.9517 22.5533 21.0308 22.9408 20.8408 23.2292C20.7208 23.4117 20.5225 23.51 20.3192 23.51Z"
        fill="#E2A62D" />
    <path
        d="M14.3157 2.26699C14.2799 2.22616 14.224 2.20366 14.1582 2.19116C14.1582 2.19116 0.888191 -0.32801 0.314025 0.178657C-0.259309 0.686157 0.616524 14.1653 0.616524 14.1653C0.620691 14.2328 0.635691 14.2903 0.672358 14.3312C1.17569 14.9012 4.63736 12.6612 8.40486 9.33032C12.1732 5.99866 14.819 2.83699 14.3157 2.26699Z"
        fill="#DD2E44" />
    <path
        d="M0.290944 0.226019C0.278444 0.251019 0.267611 0.285186 0.259277 0.328519C0.391777 1.47102 1.67178 10.8719 2.46928 13.8102C3.66594 13.141 4.88178 12.2319 6.31011 11.0994C5.09678 8.87852 0.965111 0.121853 0.290944 0.226019Z"
        fill="#EA596E" />
    <path
        d="M24.9183 24.3573L16.1074 23.2715C15.1658 23.1865 13.5099 23.1782 13.5949 21.6865C13.6724 20.334 15.2949 20.5423 16.4941 20.7198L25.3591 22.1982L24.9183 24.3573Z"
        fill="#3B88C3" />
    <path
        d="M25.3584 22.1993L21.8401 21.596C21.4284 21.5218 21.0617 22.1351 21.0434 22.7843C21.0226 23.5059 21.2326 23.8709 21.6484 23.956L25.1017 24.3826L25.3584 22.1993Z"
        fill="#88C9F9" />
    <path
        d="M29.0982 21.9509L26.9132 23.9601L23.0073 19.7126L25.1923 17.7034C26.3265 16.6601 28.1082 16.7351 29.1515 17.8693L29.264 17.9918C30.3065 19.1268 30.2323 20.9076 29.0982 21.9509Z"
        fill="#3B88C3" />
    <path
        d="M26.912 23.961C27.8504 23.0981 27.737 21.4478 26.6585 20.2749C25.5801 19.102 23.9451 18.8506 23.0066 19.7135C22.0681 20.5764 22.1816 22.2267 23.26 23.3996C24.3385 24.5725 25.9735 24.8239 26.912 23.961Z"
        fill="#88C9F9" />
    <path
        d="M26.1308 23.1113C26.6001 22.6799 26.456 21.7597 25.809 21.056C25.162 20.3523 24.2571 20.1316 23.7879 20.5631C23.3186 20.9945 23.4627 21.9147 24.1097 22.6184C24.7567 23.322 25.6616 23.5427 26.1308 23.1113Z"
        fill="#226699" />
    <path
        d="M2.08325 29.1665C2.77361 29.1665 3.33325 28.6069 3.33325 27.9165C3.33325 27.2261 2.77361 26.6665 2.08325 26.6665C1.3929 26.6665 0.833252 27.2261 0.833252 27.9165C0.833252 28.6069 1.3929 29.1665 2.08325 29.1665Z"
        fill="#55ACEE" />
    <path
        d="M24.1667 3.33333C25.0871 3.33333 25.8333 2.58714 25.8333 1.66667C25.8333 0.746192 25.0871 0 24.1667 0C23.2462 0 22.5 0.746192 22.5 1.66667C22.5 2.58714 23.2462 3.33333 24.1667 3.33333Z"
        fill="#55ACEE" />
    <path
        d="M4.05351 24.3715L2.10517 19.6915L0.343506 24.729L4.05351 24.3715ZM21.6668 4.1665L18.3335 4.99984L19.1668 1.6665L21.6668 4.1665Z"
        fill="#EA596E" />
    <path d="M26.6658 10.8333L29.9999 6.66583L27.4999 5L26.6658 10.8333Z" fill="#77B255" />
</svg>