<svg width="323" height="252" viewBox="0 0 323 252" fill="none" xmlns="http://www.w3.org/2000/svg">
    <g clip-path="url(#clip0_12_495)">
        <path opacity="0.2" d="M297.696 0H25.6763V252H297.696V0Z" fill="#E63946" />
        <path opacity="0.5" d="M256.39 23.5281H66.6094V228.817H256.39V23.5281Z" fill="#E63946" />
        <path d="M323 36.197H221.411V217.182H323V36.197Z" fill="url(#paint0_linear_12_495)" />
        <path d="M101.589 36.8865H0V217.871H101.589V36.8865Z" fill="url(#paint1_linear_12_495)" />
        <path d="M319.651 38.9548H224.76V213.39H319.651V38.9548Z" fill="#E63946" />
        <path d="M3.34921 213.39H98.2397L98.2397 38.9548H3.34921L3.34921 213.39Z" fill="#E63946" />
        <path d="M82.6105 54.8126H18.978V65.4993H82.6105V54.8126Z" fill="url(#paint2_linear_12_495)" />
        <path d="M304.394 71.015H240.761V81.7018H304.394V71.015Z" fill="url(#paint3_linear_12_495)" />
        <path d="M304.022 87.5623H240.389V98.249H304.022V87.5623Z" fill="url(#paint4_linear_12_495)" />
        <path d="M304.022 104.109H240.389V114.796H304.022V104.109Z"
            fill="url(#paint5_linear_12_495)" />
        <path d="M304.022 120.657H240.389V131.343H304.022V120.657Z"
            fill="url(#paint6_linear_12_495)" />
        <path d="M304.022 137.204H240.389V147.891H304.022V137.204Z"
            fill="url(#paint7_linear_12_495)" />
        <path d="M304.022 153.751H240.389V164.438H304.022V153.751Z"
            fill="url(#paint8_linear_12_495)" />
        <path d="M304.022 170.298H240.389V180.985H304.022V170.298Z"
            fill="url(#paint9_linear_12_495)" />
        <path d="M304.022 186.845H240.389V197.532H304.022V186.845Z"
            fill="url(#paint10_linear_12_495)" />
        <path d="M304.022 54.8126H240.389V65.4993H304.022V54.8126Z"
            fill="url(#paint11_linear_12_495)" />
        <path d="M82.6105 71.7045H18.978V82.3913H82.6105V71.7045Z"
            fill="url(#paint12_linear_12_495)" />
        <path d="M82.6105 87.907H18.978V98.5937H82.6105V87.907Z" fill="url(#paint13_linear_12_495)" />
        <path d="M82.6105 104.109H18.978V114.796H82.6105V104.109Z"
            fill="url(#paint14_linear_12_495)" />
        <path d="M82.6105 120.657H18.978V131.343H82.6105V120.657Z"
            fill="url(#paint15_linear_12_495)" />
        <path d="M82.6105 137.204H18.978V147.891H82.6105V137.204Z"
            fill="url(#paint16_linear_12_495)" />
        <path d="M81.4942 56.1915H20.4666V64.4651H81.4942V56.1915Z" fill="white" />
        <path d="M81.3082 72.394H20.2805V80.6676H81.3082V72.394Z" fill="white" />
        <path d="M81.3082 88.9412H20.2805V97.2148H81.3082V88.9412Z" fill="white" />
        <path d="M81.3082 105.488H20.2805V113.762H81.3082V105.488Z" fill="white" />
        <path d="M81.3082 122.036H20.2805V130.309H81.3082V122.036Z" fill="white" />
        <path d="M81.3082 138.583H20.2805V146.856H81.3082V138.583Z" fill="white" />
        <path d="M82.6105 153.751H18.978V164.438H82.6105V153.751Z"
            fill="url(#paint17_linear_12_495)" />
        <path d="M81.3082 155.13H20.2805V163.404H81.3082V155.13Z" fill="white" />
        <path d="M81.3082 155.13H20.2805V163.404H81.3082V155.13Z" fill="white" />
        <path d="M81.3082 171.677H20.2805V179.951H81.3082V171.677Z" fill="white" />
        <path d="M81.3082 188.224H20.2805V196.498H81.3082V188.224Z" fill="white" />
        <path d="M302.906 55.8468H241.878V64.1204H302.906V55.8468Z" fill="white" />
        <path d="M302.906 72.394H241.878V80.6676H302.906V72.394Z" fill="white" />
        <path d="M302.906 88.9412H241.878V97.2148H302.906V88.9412Z" fill="white" />
        <path d="M302.906 105.488H241.878V113.762H302.906V105.488Z" fill="white" />
        <path d="M302.906 122.036H241.878V130.309H302.906V122.036Z" fill="white" />
        <path d="M302.906 138.583H241.878V146.856H302.906V138.583Z" fill="white" />
        <path d="M302.906 155.13H241.878V163.404H302.906V155.13Z" fill="white" />
        <path d="M302.906 171.677H241.878V179.951H302.906V171.677Z" fill="white" />
        <path d="M302.906 188.224H241.878V196.498H302.906V188.224Z" fill="white" />
        <path d="M273.508 222.353H49.1199V235.453H273.508V222.353Z"
            fill="url(#paint18_linear_12_495)" />
        <path d="M272.02 223.732H50.9805V234.074H272.02V223.732Z" fill="#E63946" />
        <path d="M273.88 17.2367H49.864V30.6813H273.88V17.2367Z" fill="url(#paint19_linear_12_495)" />
        <path d="M272.02 18.2709H50.9805V28.6129H272.02V18.2709Z" fill="#E63946" />
        <path opacity="0.5" d="M216.202 38.9548H107.543V213.39H216.202V38.9548Z" fill="#263238" />
        <path
            d="M245.473 114.813C248.077 118.047 244.178 121.867 244.178 121.867L244.833 122.077C243.869 123.066 240.062 127.531 225.386 147.725C206.594 173.58 181.271 180.03 181.271 180.03C178.194 177.803 174.694 176.13 170.952 175.097V172.656C175.733 171.35 180.103 168.991 183.686 165.78C187.269 162.57 189.961 158.603 191.53 154.22C193.771 150.111 194.936 145.572 194.931 140.968C194.931 124.421 180.132 110.997 161.88 110.997C143.627 110.997 128.828 124.418 128.828 140.968C128.824 145.572 129.989 150.111 132.229 154.22C133.799 158.603 136.49 162.57 140.073 165.78C143.657 168.991 148.026 171.35 152.807 172.656V175.097C149.065 176.13 145.565 177.803 142.489 180.03C142.489 180.03 117.155 173.573 98.3625 147.718C83.6861 127.524 79.8793 123.056 78.9156 122.07L79.5705 121.86C79.5705 121.86 75.6818 118.04 78.2755 114.807C80.8692 111.573 61.1022 107.753 63.3684 114.807C65.6346 121.86 68.552 125.386 68.552 125.386C68.552 125.386 109.932 185.846 131.533 195.836C131.023 197.885 130.766 199.98 130.767 202.083V213.838H192.978V202.083C192.979 199.98 192.722 197.885 192.211 195.836C213.794 185.839 255.192 125.39 255.192 125.39C255.192 125.39 258.11 121.863 260.376 114.81C262.642 107.757 242.879 111.58 245.473 114.813Z"
            fill="url(#paint20_linear_12_495)" />
        <path
            d="M161.872 171.86C179.353 171.86 193.525 158.731 193.525 142.537C193.525 126.342 179.353 113.214 161.872 113.214C144.391 113.214 130.22 126.342 130.22 142.537C130.22 158.731 144.391 171.86 161.872 171.86Z"
            fill="#263238" />
        <path
            d="M161.872 174.738C178.326 174.738 191.664 162.382 191.664 147.139C191.664 131.896 178.326 119.54 161.872 119.54C145.419 119.54 132.08 131.896 132.08 147.139C132.08 162.382 145.419 174.738 161.872 174.738Z"
            fill="#F8C198" />
        <path
            d="M150.08 144.55C152.137 144.55 153.805 143.005 153.805 141.099C153.805 139.194 152.137 137.649 150.08 137.649C148.022 137.649 146.355 139.194 146.355 141.099C146.355 143.005 148.022 144.55 150.08 144.55Z"
            fill="#263238" />
        <path
            d="M174.286 144.55C176.343 144.55 178.011 143.005 178.011 141.099C178.011 139.194 176.343 137.649 174.286 137.649C172.229 137.649 170.561 139.194 170.561 141.099C170.561 143.005 172.229 144.55 174.286 144.55Z"
            fill="#263238" />
        <path
            d="M170.561 159.784C170.561 161.852 166.672 165.248 161.872 165.248C157.072 165.248 153.183 161.852 153.183 159.784C153.183 157.715 157.072 157.771 161.872 157.771C166.672 157.771 170.561 157.715 170.561 159.784Z"
            fill="white" />
        <path
            d="M151.01 142.251C151.696 142.251 152.253 141.735 152.253 141.099C152.253 140.463 151.696 139.948 151.01 139.948C150.324 139.948 149.767 140.463 149.767 141.099C149.767 141.735 150.324 142.251 151.01 142.251Z"
            fill="white" />
        <path
            d="M175.525 142.251C176.212 142.251 176.768 141.735 176.768 141.099C176.768 140.463 176.212 139.948 175.525 139.948C174.839 139.948 174.282 140.463 174.282 141.099C174.282 141.735 174.839 142.251 175.525 142.251Z"
            fill="white" />
        <path
            d="M164.849 131.819C163.033 131.819 161.403 130.357 161.21 128.685C161.147 127.845 161.363 127.007 161.828 126.283C162.294 125.559 162.987 124.984 163.815 124.635C163.984 124.554 164.171 124.509 164.362 124.504C164.987 124.504 165.296 125.193 165.497 125.741C166.122 127.438 167.231 129.092 168.972 129.878C170.714 130.664 173.147 130.261 174.067 128.682C171.603 127.665 170.55 124.473 171.983 122.356C172.537 121.539 173.4 120.846 173.575 119.895C173.895 118.171 171.856 116.916 170.051 116.399C164.842 114.906 146.682 114.741 145.681 121.942C144.632 129.54 159.13 132.826 164.849 131.819Z"
            fill="#263238" />
        <path
            d="M135.253 151.981C136.209 151.631 136.117 149.312 135.047 146.801C133.978 144.29 132.336 142.537 131.38 142.886C130.424 143.236 130.516 145.555 131.586 148.066C132.655 150.577 134.297 152.33 135.253 151.981Z"
            fill="#F8C198" />
        <path
            d="M192.15 148.048C193.219 145.536 193.311 143.217 192.355 142.868C191.4 142.519 189.758 144.271 188.688 146.783C187.619 149.294 187.527 151.613 188.482 151.963C189.438 152.312 191.08 150.559 192.15 148.048Z"
            fill="#F8C198" />
        <path
            d="M180.445 180.757C180.445 180.757 204.696 174.449 222.695 149.149C240.695 123.849 241.625 123.78 241.625 123.78L251.244 127.3C251.244 127.3 206.56 193.999 187.321 197.449C168.083 200.9 180.445 180.757 180.445 180.757Z"
            fill="#FF9800" />
        <path
            d="M240.698 123.852C240.698 123.852 244.419 120.115 241.941 116.958C239.463 113.8 258.389 110.063 256.216 116.958C254.042 123.852 251.252 127.3 251.252 127.3L240.698 123.852Z"
            fill="#F8C198" />
        <path
            d="M143.3 180.757C143.3 180.757 119.048 174.449 101.049 149.149C83.0496 123.849 82.1193 123.78 82.1193 123.78L72.5 127.3C72.5 127.3 117.188 193.999 136.43 197.449C155.673 200.9 143.3 180.757 143.3 180.757Z"
            fill="#FF9800" />
        <path
            d="M83.0461 123.852C83.0461 123.852 79.3249 120.115 81.8032 116.958C84.2815 113.8 65.3555 110.063 67.5287 116.958C69.7019 123.852 72.4928 127.3 72.4928 127.3L83.0461 123.852Z"
            fill="#F8C198" />
        <g opacity="0.2">
            <path opacity="0.2"
                d="M172.027 118.164C171.849 119.116 170.985 119.805 170.435 120.626C169.181 122.48 169.832 125.162 171.67 126.486C171.406 125.865 171.297 125.197 171.352 124.532C171.407 123.867 171.624 123.222 171.986 122.646C172.541 121.829 173.404 121.136 173.579 120.184C173.78 119.105 173.054 118.209 172.042 117.564C172.069 117.764 172.064 117.966 172.027 118.164Z"
                fill="white" />
            <path opacity="0.2"
                d="M164.276 124.797C164.157 124.538 164.045 124.276 163.949 124.014C163.748 123.466 163.439 122.794 162.814 122.777C162.623 122.782 162.436 122.827 162.267 122.908C161.439 123.257 160.746 123.832 160.28 124.556C159.815 125.279 159.599 126.118 159.662 126.958C159.731 127.465 159.915 127.953 160.201 128.39C160.488 128.826 160.871 129.202 161.325 129.492C161.273 129.322 161.235 129.148 161.214 128.972C161.151 128.131 161.367 127.293 161.832 126.569C162.298 125.845 162.991 125.27 163.818 124.921C163.962 124.856 164.117 124.814 164.276 124.797Z"
                fill="white" />
            <path opacity="0.2"
                d="M161.653 130.257C157.128 130.433 149.827 128.834 146.228 125.431C148.915 130.726 160.015 132.943 164.834 132.091C164.177 132.071 163.537 131.891 162.979 131.569C162.42 131.247 161.963 130.795 161.653 130.257Z"
                fill="white" />
            <path opacity="0.2"
                d="M172.172 127.417C171.086 128.599 168.98 128.847 167.428 128.148C166.921 127.916 166.456 127.613 166.051 127.248C166.652 128.492 167.682 129.515 168.98 130.157C170.721 130.94 173.155 130.54 174.074 128.961C173.291 128.629 172.63 128.092 172.172 127.417Z"
                fill="white" />
        </g>
        <path opacity="0.2"
            d="M250.009 127.3C250.009 127.3 205.321 193.999 186.06 197.449C184.947 197.656 183.819 197.784 182.685 197.832C184.235 197.873 185.785 197.745 187.303 197.449C206.545 194.002 251.233 127.3 251.233 127.3L250.236 126.972C250.098 127.189 250.009 127.3 250.009 127.3Z"
            fill="white" />
        <path opacity="0.2"
            d="M73.7355 127.3C73.7355 127.3 118.423 193.999 137.684 197.449C138.797 197.656 139.926 197.784 141.059 197.832C139.509 197.873 137.959 197.745 136.441 197.449C117.199 194.002 72.5112 127.3 72.5112 127.3L73.5085 126.972C73.6462 127.189 73.7355 127.3 73.7355 127.3Z"
            fill="white" />
        <path
            d="M161.872 174.738C165.785 174.738 169.659 175.452 173.273 176.839C176.888 178.226 180.172 180.259 182.938 182.822C185.705 185.385 187.899 188.427 189.396 191.776C190.894 195.124 191.664 198.713 191.664 202.338V213.838H132.08V202.338C132.08 198.713 132.851 195.124 134.348 191.776C135.845 188.427 138.04 185.385 140.806 182.822C143.573 180.259 146.857 178.226 150.471 176.839C154.086 175.452 157.96 174.738 161.872 174.738Z"
            fill="#FF9800" />
        <path opacity="0.2"
            d="M162.181 174.883C161.097 174.883 160.014 174.937 158.936 175.045C159.308 175.045 159.647 175.025 160.008 175.025C167.909 175.025 175.487 177.932 181.074 183.108C186.661 188.284 189.8 195.304 189.8 202.624V213.979H191.973V202.483C191.973 195.163 188.834 188.143 183.247 182.967C177.66 177.791 170.082 174.883 162.181 174.883Z"
            fill="white" />
        <path opacity="0.2"
            d="M161.563 174.883C162.647 174.883 163.731 174.937 164.808 175.045C164.436 175.045 164.098 175.025 163.737 175.025C155.835 175.025 148.258 177.932 142.671 183.108C137.083 188.284 133.945 195.304 133.945 202.624V213.979H131.771V202.483C131.771 195.163 134.91 188.143 140.497 182.967C146.084 177.791 153.662 174.883 161.563 174.883Z"
            fill="white" />
        <path
            d="M170.561 175.169C170.561 170.724 166.671 167.12 161.872 167.12C157.073 167.12 153.183 170.724 153.183 175.169V178.475C153.183 182.921 157.073 186.525 161.872 186.525C166.671 186.525 170.561 182.921 170.561 178.475V175.169Z"
            fill="#F8C198" />
    </g>
    <defs>
        <linearGradient id="paint0_linear_12_495" x1="272.206" y1="217.182" x2="272.206" y2="36.197"
            gradientUnits="userSpaceOnUse">
            <stop stop-color="#808080" stop-opacity="0.25" />
            <stop offset="0.54" stop-color="#808080" stop-opacity="0.12" />
            <stop offset="1" stop-color="#808080" stop-opacity="0.1" />
        </linearGradient>
        <linearGradient id="paint1_linear_12_495" x1="13866.9" y1="114419" x2="13866.9" y2="19402.3"
            gradientUnits="userSpaceOnUse">
            <stop stop-color="#808080" stop-opacity="0.25" />
            <stop offset="0.54" stop-color="#808080" stop-opacity="0.12" />
            <stop offset="1" stop-color="#808080" stop-opacity="0.1" />
        </linearGradient>
        <linearGradient id="paint2_linear_12_495" x1="50.7943" y1="65.4993" x2="50.7943"
            y2="54.8126" gradientUnits="userSpaceOnUse">
            <stop stop-opacity="0.12" />
            <stop offset="0.55" stop-opacity="0.09" />
            <stop offset="1" stop-opacity="0.02" />
        </linearGradient>
        <linearGradient id="paint3_linear_12_495" x1="46851.5" y1="2603.77" x2="46851.5"
            y2="2272.48" gradientUnits="userSpaceOnUse">
            <stop stop-opacity="0.12" />
            <stop offset="0.55" stop-opacity="0.09" />
            <stop offset="1" stop-opacity="0.02" />
        </linearGradient>
        <linearGradient id="paint4_linear_12_495" x1="46787.5" y1="3133.28" x2="46787.5"
            y2="2801.99" gradientUnits="userSpaceOnUse">
            <stop stop-opacity="0.12" />
            <stop offset="0.55" stop-opacity="0.09" />
            <stop offset="1" stop-opacity="0.02" />
        </linearGradient>
        <linearGradient id="paint5_linear_12_495" x1="46787.5" y1="3662.79" x2="46787.5" y2="3331.5"
            gradientUnits="userSpaceOnUse">
            <stop stop-opacity="0.12" />
            <stop offset="0.55" stop-opacity="0.09" />
            <stop offset="1" stop-opacity="0.02" />
        </linearGradient>
        <linearGradient id="paint6_linear_12_495" x1="46787.5" y1="4192.3" x2="46787.5" y2="3861.01"
            gradientUnits="userSpaceOnUse">
            <stop stop-opacity="0.12" />
            <stop offset="0.55" stop-opacity="0.09" />
            <stop offset="1" stop-opacity="0.02" />
        </linearGradient>
        <linearGradient id="paint7_linear_12_495" x1="46787.5" y1="4721.81" x2="46787.5"
            y2="4390.52" gradientUnits="userSpaceOnUse">
            <stop stop-opacity="0.12" />
            <stop offset="0.55" stop-opacity="0.09" />
            <stop offset="1" stop-opacity="0.02" />
        </linearGradient>
        <linearGradient id="paint8_linear_12_495" x1="46787.5" y1="5251.32" x2="46787.5"
            y2="4920.03" gradientUnits="userSpaceOnUse">
            <stop stop-opacity="0.12" />
            <stop offset="0.55" stop-opacity="0.09" />
            <stop offset="1" stop-opacity="0.02" />
        </linearGradient>
        <linearGradient id="paint9_linear_12_495" x1="46787.5" y1="5780.83" x2="46787.5"
            y2="5449.54" gradientUnits="userSpaceOnUse">
            <stop stop-opacity="0.12" />
            <stop offset="0.55" stop-opacity="0.09" />
            <stop offset="1" stop-opacity="0.02" />
        </linearGradient>
        <linearGradient id="paint10_linear_12_495" x1="46787.5" y1="6310.33" x2="46787.5"
            y2="5979.04" gradientUnits="userSpaceOnUse">
            <stop stop-opacity="0.12" />
            <stop offset="0.55" stop-opacity="0.09" />
            <stop offset="1" stop-opacity="0.02" />
        </linearGradient>
        <linearGradient id="paint11_linear_12_495" x1="46787.5" y1="54.8126" x2="46787.5"
            y2="54.8126" gradientUnits="userSpaceOnUse">
            <stop stop-opacity="0.12" />
            <stop offset="0.55" stop-opacity="0.09" />
            <stop offset="1" stop-opacity="0.02" />
        </linearGradient>
        <linearGradient id="paint12_linear_12_495" x1="3264.23" y1="2460.19" x2="14145.4"
            y2="2460.19" gradientUnits="userSpaceOnUse">
            <stop stop-opacity="0.12" />
            <stop offset="0.55" stop-opacity="0.09" />
            <stop offset="1" stop-opacity="0.02" />
        </linearGradient>
        <linearGradient id="paint13_linear_12_495" x1="3264.23" y1="2978.66" x2="14145.4"
            y2="2978.66" gradientUnits="userSpaceOnUse">
            <stop stop-opacity="0.12" />
            <stop offset="0.55" stop-opacity="0.09" />
            <stop offset="1" stop-opacity="0.02" />
        </linearGradient>
        <linearGradient id="paint14_linear_12_495" x1="3264.23" y1="3497.14" x2="14145.4"
            y2="3497.14" gradientUnits="userSpaceOnUse">
            <stop stop-opacity="0.12" />
            <stop offset="0.55" stop-opacity="0.09" />
            <stop offset="1" stop-opacity="0.02" />
        </linearGradient>
        <linearGradient id="paint15_linear_12_495" x1="3264.23" y1="4026.65" x2="14145.4"
            y2="4026.65" gradientUnits="userSpaceOnUse">
            <stop stop-opacity="0.12" />
            <stop offset="0.55" stop-opacity="0.09" />
            <stop offset="1" stop-opacity="0.02" />
        </linearGradient>
        <linearGradient id="paint16_linear_12_495" x1="3264.23" y1="4556.17" x2="14145.4"
            y2="4556.17" gradientUnits="userSpaceOnUse">
            <stop stop-opacity="0.12" />
            <stop offset="0.55" stop-opacity="0.09" />
            <stop offset="1" stop-opacity="0.02" />
        </linearGradient>
        <linearGradient id="paint17_linear_12_495" x1="3264.23" y1="5085.67" x2="14145.4"
            y2="5085.67" gradientUnits="userSpaceOnUse">
            <stop stop-opacity="0.12" />
            <stop offset="0.55" stop-opacity="0.09" />
            <stop offset="1" stop-opacity="0.02" />
        </linearGradient>
        <linearGradient id="paint18_linear_12_495" x1="29668.4" y1="8920.67" x2="164975"
            y2="8920.67" gradientUnits="userSpaceOnUse">
            <stop stop-color="#808080" stop-opacity="0.25" />
            <stop offset="0.54" stop-color="#808080" stop-opacity="0.12" />
            <stop offset="1" stop-color="#808080" stop-opacity="0.1" />
        </linearGradient>
        <linearGradient id="paint19_linear_12_495" x1="97496.9" y1="1213.81" x2="97496.9"
            y2="689.467" gradientUnits="userSpaceOnUse">
            <stop stop-color="#808080" stop-opacity="0.25" />
            <stop offset="0.54" stop-color="#808080" stop-opacity="0.12" />
            <stop offset="1" stop-color="#808080" stop-opacity="0.1" />
        </linearGradient>
        <linearGradient id="paint20_linear_12_495" x1="118683" y1="72715.2" x2="118683" y2="41934.6"
            gradientUnits="userSpaceOnUse">
            <stop stop-color="#808080" stop-opacity="0.25" />
            <stop offset="0.54" stop-color="#808080" stop-opacity="0.12" />
            <stop offset="1" stop-color="#808080" stop-opacity="0.1" />
        </linearGradient>
        <clipPath id="clip0_12_495">
            <rect width="323" height="252" fill="white" />
        </clipPath>
    </defs>
</svg>