<svg width="30" height="30" viewBox="0 0 30 30" fill="none" xmlns="http://www.w3.org/2000/svg">
    <path
        d="M15 29.8118C23.2843 29.8118 30 27.812 30 25.3451C30 22.8782 23.2843 20.8784 15 20.8784C6.71573 20.8784 0 22.8782 0 25.3451C0 27.812 6.71573 29.8118 15 29.8118Z"
        fill="#3B88C3" />
    <path
        d="M28.1775 23.6771C28.1775 25.0238 26.0942 25.8329 16.1092 25.8329C7.00504 25.8329 4.76587 25.0238 4.76587 23.6771C4.76587 22.3304 9.5017 21.2388 16.1092 21.2388C22.7167 21.2388 28.1775 22.3304 28.1775 23.6771Z"
        fill="#88C9F9" />
    <path
        d="M5.83325 23.4372C5.83325 22.6038 6.66659 19.2705 14.9999 19.2705C24.9999 19.2705 27.4999 22.6038 27.4999 23.4372C27.4999 24.2705 27.4999 25.1038 15.8333 25.1038C5.83325 25.1038 5.83325 24.2705 5.83325 23.4372Z"
        fill="#F4900C" />
    <path
        d="M17.1833 22.9512C17.0583 23.5278 16.4874 23.8953 15.9108 23.7695C15.3333 23.6445 14.9666 23.0745 15.0916 22.497L19.3274 0.842819C19.4524 0.265319 20.0224 -0.100515 20.5999 0.0244854C21.1757 0.149485 21.5441 0.719485 21.4174 1.29699L17.1833 22.9512Z"
        fill="#66757F" />
    <path
        d="M20.2983 1.41793C13.9466 0.0395955 7.91746 2.97876 6.83162 7.98293C6.83162 7.98293 6.52912 9.37626 7.22662 9.52793C7.92329 9.6796 9.61996 8.58793 9.61996 8.58793L27.0433 12.3696C27.0433 12.3696 28.1341 14.0663 28.8316 14.2179C29.5291 14.3696 29.8308 12.9754 29.8308 12.9754C30.9175 7.97043 26.6491 2.79626 20.2983 1.41793Z"
        fill="#DD2E44" />
    <path
        d="M20.2983 1.41773C15.4867 0.37356 10.7058 3.58356 9.61999 8.58689C9.61999 8.58689 9.31749 9.98106 10.7117 10.2836C12.1058 10.5869 14.4992 9.64606 14.4992 9.64606L22.165 11.3102C22.165 11.3102 23.9533 13.1577 25.3475 13.4611C26.7417 13.7627 27.0433 12.3686 27.0433 12.3686C28.1292 7.36523 25.1092 2.46189 20.2983 1.41773Z"
        fill="#FFE8B6" />
    <path
        d="M20.2983 1.41822C17.7958 0.875718 15.5841 4.64322 14.4983 9.64655C14.4983 9.64655 16.2866 11.4949 17.68 11.7966L18.3775 11.9491C19.7716 12.2507 22.1641 11.3107 22.1641 11.3107C23.2508 6.30738 22.8008 1.96155 20.2983 1.41822Z"
        fill="#DD2E44" />
    <path
        d="M13.2033 23.1855C13.5942 22.8297 14.6617 22.9139 15.2867 22.6839C15.9117 22.4539 16.3025 22.1614 16.8233 22.3705C17.3442 22.5797 17.5 22.893 17.995 22.9355C18.49 22.978 18.8542 23.2705 18.6458 23.5005C18.4375 23.7305 16.7967 23.8139 15.7033 23.8139C14.61 23.8139 12.7208 23.6255 13.2033 23.1855Z"
        fill="#FFAC33" />
</svg>