<svg width="36" height="30" viewBox="0 0 36 30" fill="none" xmlns="http://www.w3.org/2000/svg">
    <path
        d="M12 3.21498L3 0.803977C1.343 0.359977 0 1.34298 0 3.00098V23.001C0 24.657 1.343 26.36 3 26.805L12 29.216V3.21498ZM24 26.001L33 28.412C34.656 28.855 36 27.872 36 26.216V6.21598C36 4.55898 34.656 2.85598 33 2.41198L24 0.000976562V26.001Z"
        fill="#CCD6DD" />
    <path d="M24 26L12 29.215V3.215L24 0V26Z" fill="#E1E8ED" />
    <path
        d="M12 5.21502L4 3.07102C2.896 2.77502 2 3.43102 2 4.53502V22.535C2 23.639 2.896 24.775 4 25.07L12 27.215V5.21502ZM32 4.14302L24 1.99902V23.999L32 26.143C33.104 26.439 34 25.784 34 24.678V6.67802C34 5.57502 33.104 4.43902 32 4.14302Z"
        fill="#55ACEE" />
    <path d="M24 24L12 27.215V5.215L24 2V24Z" fill="#88C9F9" />
    <path
        d="M12 17.1142C11.732 17.1202 11.405 17.2182 11.155 17.2592C10.719 17.3322 10.826 17.7762 10.692 17.7022C10.557 17.6282 10.217 17.4372 9.88004 17.0442C9.54304 16.6502 10.13 16.5672 10.298 16.4222C10.466 16.2772 9.98204 16.2502 9.81304 16.0902C9.64404 15.9312 9.34204 16.1942 9.07404 15.8142C8.80404 15.4382 8.97304 15.0242 8.94104 14.6342C8.90704 14.2442 9.37704 14.2932 9.68004 14.3002C9.98304 14.3032 10.218 14.4442 10.218 14.9022C10.218 15.3582 10.588 15.6102 10.487 15.0482C10.386 14.4872 10.588 14.3912 10.722 14.1582C10.856 13.9282 11.092 13.6082 11.394 13.1182C11.615 12.7602 11.783 12.8352 12 12.9542V9.60918C11.945 9.56518 11.89 9.51918 11.835 9.49618C11.532 9.36418 11.931 10.2492 11.696 10.6052C11.459 10.9612 11.098 10.7982 10.726 10.6992C10.357 10.6002 10.013 10.1542 10.283 9.69218C10.551 9.23018 11.065 9.42418 11.334 9.03918C11.603 8.65418 10.377 8.36718 9.94004 8.09818C9.50204 7.82718 8.97704 7.68918 8.54004 7.95218C8.10304 8.21618 7.16704 8.08518 6.79704 8.13818C6.42704 8.19218 6.36104 7.76918 6.29404 7.44518C6.22704 7.12318 5.64104 7.11618 5.03704 7.10718C4.43104 7.09718 3.29604 7.38818 3.49004 8.86618C3.55804 9.38018 4.09504 8.99018 4.19704 8.90218C4.29804 8.81418 4.80204 9.10218 4.86804 9.53918C4.93604 9.97818 4.90304 10.4262 4.76904 10.7712C4.63204 11.1162 5.10504 11.7772 5.37304 12.3832C5.64204 12.9882 5.94604 13.0692 6.08004 13.1062C6.21504 13.1422 6.98804 13.6932 6.95504 14.1022C6.92204 14.5132 7.66104 15.0932 7.96404 15.4422C8.26704 15.7922 8.45804 16.1042 8.85104 16.2882C9.24404 16.4712 9.70304 17.3232 9.90504 17.4532C10.06 17.5532 10.323 17.9042 10.481 18.0332C10.273 18.2752 9.86904 18.7812 9.86904 19.0622C9.86904 19.4452 10.309 20.1652 10.477 20.3622C10.644 20.5582 11.127 20.8042 11.228 21.2122C11.329 21.6192 11.158 22.8582 10.856 23.1192C10.552 23.3812 10.442 24.1622 10.442 24.1622C10.442 24.1622 10.549 24.4552 10.907 24.2862C11.216 24.1422 11.683 23.7202 12.001 23.4852V17.1142H12Z"
        fill="#5C913B" />
    <path
        d="M12.268 13.0209C12.168 13.0369 12.081 13.0329 12 13.0319V9.6869C12.254 9.7519 12.512 10.0039 12.707 10.4229C12.941 10.9319 13.311 10.4889 13.446 10.7969C13.58 11.1049 14.321 11.5549 13.951 11.5389C13.58 11.5239 13.21 11.5469 13.11 11.9929C13.008 12.4409 13.278 12.7869 13.008 12.8209C12.738 12.8539 12.638 12.9629 12.268 13.0209ZM14.858 18.5789C14.422 18.5049 14.499 18.5559 14.23 17.9799C13.962 17.4029 13.799 17.2369 13.194 17.3239C12.589 17.4109 12.611 17.4599 12.443 17.1609C12.371 17.0329 12.202 17.0789 12 17.1919V23.5619C12.09 23.4479 12.17 23.3509 12.228 23.2949C12.733 22.8179 13.224 22.2689 13.694 21.6489C14.164 21.0279 13.994 20.7249 14.229 20.1679C14.465 19.6099 14.77 19.5509 15.173 19.0229C15.578 18.4929 15.295 18.6549 14.858 18.5789ZM24 11.3389V5.0249C23.96 5.0289 23.932 5.0369 23.89 5.0399C23.681 5.0509 23.408 5.1749 23.111 5.3599C23.087 5.3549 23.065 5.3439 23.041 5.3389C22.145 5.1639 21.729 6.5439 21.002 6.4909C20.273 6.4379 19.302 6.1469 18.67 7.0049C18.039 7.8619 17.893 8.5349 18.67 8.2989C19.447 8.0629 19.982 6.8739 20.37 7.2099C20.758 7.5459 20.66 7.9309 19.738 8.3149C18.816 8.6999 17.82 9.1319 17.286 9.2749C16.752 9.4179 16.631 9.8089 16.994 10.0969C17.358 10.3849 16.775 10.5679 16.168 11.1169C15.561 11.6639 16.314 11.6289 16.824 11.8219C17.334 12.0149 17.722 11.4989 17.941 10.8899C18.158 10.2819 19.099 9.3689 19.491 9.3459C19.883 9.3229 19.883 9.5429 19.809 9.9479C19.796 10.0189 19.81 10.0509 19.82 10.0859C19.65 10.6259 19.51 11.1159 19.455 11.3919C19.429 11.5269 19.424 11.7429 19.428 11.9869C19.342 11.9909 19.245 12.0079 19.18 11.9879C18.742 11.8589 17.746 11.7679 17.479 12.0309C17.212 12.2959 17.067 12.5329 16.751 12.7539C16.434 12.9729 15.148 13.9779 15.124 14.8379C15.099 15.6969 15.075 16.6679 15.585 16.5589C16.095 16.4499 17.334 15.7329 17.722 15.2709C18.109 14.8079 18.643 14.7489 18.814 15.1149C18.984 15.4839 18.862 15.7639 18.694 16.4689C18.523 17.1769 18.804 17.4319 19.075 17.9369C19.348 18.4409 19.566 18.7119 19.566 19.1259C19.566 19.5379 19.955 19.8489 20.536 19.0029C20.724 18.7329 20.903 18.3969 21.072 18.0459C21.481 17.5769 21.84 17.1229 21.83 16.9499C21.814 16.6689 21.809 16.5159 21.806 16.3259L21.897 16.1059C22.024 15.8129 22.138 15.3599 22.259 14.9509C22.266 14.9409 22.272 14.9339 22.279 14.9269C22.516 14.5899 22.464 14.5739 22.859 14.1709C23.123 13.9009 23.113 13.6589 23.073 13.4929C23.178 13.3179 23.207 13.2129 23.04 13.2579L23.024 13.2619C23.022 13.2619 23.019 13.2809 23.018 13.2759C22.995 13.1269 22.812 13.2789 22.517 13.4239C22.233 13.4319 21.951 13.3579 21.849 13.0559C21.716 12.6599 21.247 12.0599 21.21 11.7199C21.213 11.6789 21.215 11.6429 21.22 11.5959C21.234 11.5599 21.253 11.5299 21.289 11.5079C21.327 11.4859 21.364 11.4779 21.401 11.4729C21.442 11.5839 21.476 11.7519 21.487 11.9369C21.513 12.4139 21.881 12.1329 21.881 12.4349C21.881 12.7379 22.411 12.9269 22.542 12.9829C22.579 12.9989 22.636 12.9559 22.701 12.8849C22.732 12.8959 22.761 12.9179 22.794 12.9219C23.086 12.9529 23.716 11.9379 23.911 11.7579C24.013 11.6629 24.015 11.4889 23.944 11.3639L24 11.3389Z"
        fill="#77B255" />
    <path
        d="M27.634 15.8289C27.581 16.2689 27.818 16.0299 28.24 16.5339C28.663 17.0419 28.136 16.9279 27.951 16.8499C27.766 16.7699 27.581 16.7189 27.372 16.3319C27.159 15.9409 27.372 15.6369 27.372 15.3049C27.372 15.3049 27.688 15.3889 27.634 15.8289ZM27.996 14.9279C28.385 15.0939 28.11 14.4459 28.24 14.0869C28.372 13.7309 28.556 13.7189 28.795 13.7239C29.031 13.7259 29.217 13.5329 29.376 13.3349C29.533 13.1359 29.824 12.8809 29.798 12.6019C29.772 12.3229 29.694 12.1199 29.586 11.7589C29.481 11.3989 29.902 11.3909 30.088 11.0479C30.272 10.7049 30.088 11.0479 30.509 11.0399C30.931 11.0319 30.747 10.9819 30.825 10.8219C30.905 10.6629 30.958 10.4949 30.879 10.1419C30.801 9.78893 30.509 10.0419 30.219 9.96493C29.93 9.88793 30.325 9.53993 30.351 9.18493C30.377 8.82893 30.748 9.01993 31.012 9.05993C31.275 9.09893 31.354 9.54393 31.433 9.65693C31.514 9.76893 32.328 9.29193 32.541 9.01593C32.752 8.74093 32.355 8.72493 32.462 8.61293C32.568 8.50193 31.83 8.27593 31.537 8.14393C31.248 8.01093 30.509 7.77693 30.219 7.49493C29.93 7.21193 28.823 7.06893 28.531 7.15793C28.24 7.24393 28.055 7.01493 27.925 6.75193C27.794 6.48993 27.239 6.45493 27.081 6.28493C26.923 6.11493 26.765 6.41193 26.552 6.44493C26.342 6.47993 26.263 6.48793 25.998 6.23593C25.735 5.98393 26.078 5.86493 25.71 5.61493C25.355 5.37693 24.897 5.43293 24 5.02393V11.3379C24.157 11.3519 24.309 11.3739 24.364 11.3889C24.495 11.4239 24.812 11.9619 24.812 12.1729C24.812 12.3839 24.97 13.0009 25.103 13.3679C25.234 13.7339 25.523 13.8739 25.789 14.1859C26.053 14.4979 26.183 14.3229 26.183 14.3229C26.183 14.3229 26.078 13.7789 26.078 13.3579C26.078 12.9339 26.394 12.6569 26.394 12.6569C26.394 12.6569 26.894 13.2149 26.922 13.3419C26.948 13.4699 27.343 13.9979 27.371 14.2179C27.397 14.4369 27.608 14.7639 27.996 14.9279ZM30.088 12.8599C30.272 12.9399 31.064 13.0309 30.642 12.5259C30.219 12.0199 30.536 12.2269 30.589 11.7879C30.642 11.3479 30.325 11.2639 30.325 11.2639C30.325 11.5959 30.114 11.9019 30.325 12.2899C30.535 12.6799 29.902 12.7799 30.088 12.8599ZM32.092 18.2309C31.961 18.0139 31.671 17.8459 31.354 17.7699C31.039 17.6939 31.064 17.2899 30.748 17.2369C30.432 17.1819 30.204 16.8479 30.062 16.7249C29.75 16.4589 29.956 16.9339 30.062 17.4239C30.168 17.9119 30.563 17.6699 30.931 18.0099C31.3 18.3499 31.328 18.0259 31.671 18.2389C32.013 18.4499 32.146 18.7589 32.475 18.8169C32.804 18.8759 32.225 18.4479 32.092 18.2309ZM29.004 16.7989C29.266 17.2009 29.163 16.8419 29.508 16.7829C29.851 16.7239 29.217 16.2219 29.006 15.9839C28.795 15.7459 28.586 15.6829 28.401 16.0329C28.191 16.4319 28.743 16.3969 29.004 16.7989ZM31.407 19.3779C31.274 19.0399 30.889 18.6649 30.732 18.4679C30.573 18.2749 30.325 18.1559 30.114 18.1889C29.902 18.2199 29.771 18.0969 29.666 17.8279C29.56 17.5619 29.376 17.5949 29.217 17.5839C29.06 17.5719 28.426 17.7029 28.056 17.8139C27.688 17.9269 27.519 18.0659 27.278 18.2709C26.896 18.5909 27.108 18.3759 27.278 18.6949C27.446 19.0129 27.091 19.7609 27.065 20.2379C27.038 20.7149 27.741 20.2689 28.004 20.2769C28.268 20.2889 28.19 20.0879 28.4 19.9629C28.612 19.8379 28.749 19.8339 28.979 20.1349C29.212 20.4399 29.516 20.7459 29.516 21.0179C29.516 21.2879 30.35 21.9649 30.667 21.8699C30.983 21.7719 31.168 21.4619 31.458 21.2349C31.749 21.0099 31.644 20.4109 31.722 20.0669C31.803 19.7229 31.537 19.7129 31.407 19.3779Z"
        fill="#5C913B" />
</svg>