<svg width="29" height="36" viewBox="0 0 29 36" fill="none" xmlns="http://www.w3.org/2000/svg">
    <path d="M7 5.93799V17C7 21.971 11.029 26 16 26C20.971 26 25 21.971 25 17V6.24999L7 5.93799Z"
        fill="#FFDC5D" />
    <path d="M12 22H20C20 22 19 24 16 24C13 24 12 22 12 22Z" fill="#C1694F" />
    <path
        d="M12 16C11.448 16 11 15.552 11 15V14C11 13.448 11.448 13 12 13C12.552 13 13 13.448 13 14V15C13 15.552 12.552 16 12 16ZM20 16C19.448 16 19 15.552 19 15V14C19 13.448 19.448 13 20 13C20.552 13 21 13.448 21 14V15C21 15.552 20.552 16 20 16Z"
        fill="#662113" />
    <path
        d="M17 19.5H15C14.724 19.5 14.5 19.276 14.5 19C14.5 18.724 14.724 18.5 15 18.5H17C17.276 18.5 17.5 18.724 17.5 19C17.5 19.276 17.276 19.5 17 19.5Z"
        fill="#C1694F" />
    <path
        d="M8.847 13.715C8.847 15.295 8.047 16.576 7.059 16.576C6.071 16.576 5.271 15.295 5.271 13.715C5.271 12.135 6.072 10.854 7.059 10.854C8.046 10.854 8.847 12.135 8.847 13.715ZM26.729 13.715C26.729 15.295 25.929 16.576 24.941 16.576C23.953 16.576 23.153 15.295 23.153 13.715C23.153 12.135 23.953 10.854 24.941 10.854C25.929 10.854 26.729 12.135 26.729 13.715Z"
        fill="#FFDC5D" />
    <path
        d="M16 0.823242C8.98096 0.823242 5.86096 5.50724 5.86096 9.41124C5.86096 13.3142 7.20396 14.3972 7.42096 13.3142C8.20096 9.41124 10.541 8.21324 10.541 8.21324C15.221 12.1172 14.441 8.99424 14.441 8.99424C19.12 13.6782 16.781 8.99424 16.781 8.99424C18.341 10.5562 23.02 10.5562 23.02 10.5562C23.02 10.5562 23.8 11.7542 24.579 13.3152C25.359 14.8772 26.139 13.3152 26.139 9.41224C26.139 5.50724 22.239 0.823242 16 0.823242Z"
        fill="#FFAC33" />
    <path
        d="M10.421 2.935C9.83 2.546 9.034 2.711 8.645 3.302L8 4.284V2C8 0.895 7.104 0 6 0H2C0.896 0 0 0.896 0 2V10C0 10 0 11 1 11H7L8 10V8.957L10.789 4.711C11.178 4.119 11.014 3.324 10.421 2.935Z"
        fill="#FFDC5D" />
    <path d="M2 0H3V5H2V0ZM5 0H6V5H5V0Z" fill="#EF9645" />
    <path d="M25 27H7L8 10H0V27C0 27 0 36 8 36H29V31C29 28.791 27.209 27 25 27Z" fill="#4289C1" />
    <path d="M24 32H25V36H24V32Z" fill="#2A6797" />
    <path d="M13 24V28C13 29.657 14.343 31 16 31C17.657 31 19 29.657 19 28V24H13Z" fill="#FFDC5D" />
</svg>