<svg width="35" height="36" viewBox="0 0 35 36" fill="none" xmlns="http://www.w3.org/2000/svg">
    <path
        d="M30 32C30 34.209 28.209 36 26 36H4C1.791 36 0 34.209 0 32V4C0 1.791 1.791 0 4 0H26C28.209 0 30 1.791 30 4V32Z"
        fill="#CCD6DD" />
    <path
        d="M26 24C26 24.553 25.553 25 25 25H5C4.448 25 4 24.553 4 24C4 23.447 4.448 23 5 23H25C25.553 23 26 23.447 26 24ZM10 28C10 28.553 9.552 29 9 29H5C4.448 29 4 28.553 4 28C4 27.447 4.448 27 5 27H9C9.552 27 10 27.447 10 28ZM26 8C26 8.552 25.553 9 25 9H5C4.448 9 4 8.552 4 8C4 7.448 4.448 7 5 7H25C25.553 7 26 7.448 26 8ZM26 12C26 12.553 25.553 13 25 13H5C4.448 13 4 12.553 4 12C4 11.447 4.448 11 5 11H25C25.553 11 26 11.447 26 12ZM26 16C26 16.553 25.553 17 25 17H5C4.448 17 4 16.553 4 16C4 15.447 4.448 15 5 15H25C25.553 15 26 15.447 26 16ZM26 20C26 20.553 25.553 21 25 21H5C4.448 21 4 20.553 4 20C4 19.447 4.448 19 5 19H25C25.553 19 26 19.447 26 20Z"
        fill="#99AAB5" />
    <path
        d="M30 6.27208C29.173 5.73708 28.163 5.69308 27.479 6.24908L26.687 6.89508L25.203 8.10608L25.103 8.18608L22.727 10.1241L10.849 19.8101C10.412 20.1671 10.056 21.0291 9.67599 21.8841C9.29799 22.7341 8.70699 24.7361 8.23299 26.2751C8.08499 26.5251 7.16799 28.1211 7.68199 28.7281C8.20199 29.3431 10.008 28.7381 10.25 28.6521C11.876 28.4781 13.981 28.2791 14.898 28.0721C15.822 27.8611 16.752 27.6771 17.189 27.3201C17.197 27.3141 17.199 27.3021 17.206 27.2971L29.064 17.6311L29.856 16.9851L30 16.8671V6.27208Z"
        fill="#66757F" />
    <path
        d="M17.145 22.5262C17.145 22.5262 15.871 20.6452 15.028 19.9732C14.356 19.1302 12.479 17.8572 12.479 17.8572C12.031 17.4112 11.288 17.3772 10.85 17.8142C10.413 18.2522 10.057 19.1802 9.67701 20.1052C9.20501 21.2512 8.40101 24.2592 7.90901 25.8572C7.82601 26.1292 8.42601 25.4072 8.41201 25.6472C8.40201 25.8342 8.43901 26.0412 8.48601 26.2282L8.34001 26.3872L8.54801 26.4542C8.57301 26.5362 8.59801 26.6082 8.61601 26.6642L8.77501 26.5182C8.96201 26.5652 9.16901 26.6022 9.35501 26.5922C9.59501 26.5782 8.87201 27.1792 9.14501 27.0952C10.743 26.6022 13.752 25.7992 14.897 25.3272C15.821 24.9462 16.751 24.5912 17.188 24.1532C17.627 23.7182 17.594 22.9752 17.145 22.5262Z"
        fill="#D99E82" />
    <path
        d="M24.312 4.35111C23.436 5.22611 23.436 6.64411 24.312 7.51911L27.479 10.6871C28.355 11.5611 29.773 11.5611 30.647 10.6871L33.816 7.51911C34.69 6.64411 34.69 5.22611 33.816 4.35111L30.647 1.18311C29.773 0.308105 28.355 0.308105 27.479 1.18311L24.312 4.35111Z"
        fill="#EA596E" />
    <path d="M10.849 17.815L14.019 20.985L17.184 24.151L29.065 12.272L22.728 5.93604L10.849 17.815Z"
        fill="#FFCC4D" />
    <path
        d="M10.298 26.742C10.298 26.742 8.23801 27.875 7.68201 27.318C7.12501 26.76 8.26301 24.707 8.26301 24.707C8.26301 24.707 10.214 24.743 10.298 26.742Z"
        fill="#292F33" />
    <path d="M22.728 5.9351L26.688 1.9751L33.024 8.3121L29.064 12.2721L22.728 5.9351Z"
        fill="#CCD6DD" />
    <path
        d="M25.103 3.55811L25.895 2.76611L32.231 9.10111L31.439 9.89311L25.103 3.55811ZM23.52 5.14211L24.311 4.35111L30.647 10.6861L29.855 11.4781L23.52 5.14211Z"
        fill="#99AAB5" />
</svg>