<svg width="258" height="210" viewBox="0 0 258 210" fill="none" xmlns="http://www.w3.org/2000/svg">
    <g clip-path="url(#clip0_262_3814)">
        <path d="M162.108 191.396L158.211 191.396L156.357 175.905L162.109 175.905L162.108 191.396Z"
            fill="#9E616A" />
        <path
            d="M163.102 195.289L150.536 195.289V195.125C150.536 193.788 151.051 192.506 151.968 191.561C152.886 190.616 154.13 190.085 155.427 190.085H155.427L163.102 190.085L163.102 195.289Z"
            fill="#2F2E41" />
        <path d="M148.121 191.396L144.224 191.396L142.37 175.905L148.122 175.905L148.121 191.396Z"
            fill="#9E616A" />
        <path
            d="M149.115 195.289L136.549 195.289V195.125C136.549 193.788 137.064 192.506 137.981 191.561C138.899 190.616 140.143 190.085 141.44 190.085H141.44L149.115 190.085L149.115 195.289Z"
            fill="#2F2E41" />
        <path
            d="M102.732 82.8473C103.043 83.2888 103.445 83.6544 103.908 83.9186C104.372 84.1828 104.886 84.339 105.414 84.3764C105.943 84.4137 106.472 84.3311 106.967 84.1346C107.461 83.938 107.907 83.6322 108.274 83.2387L115.985 86.342L118.958 81.9727L108.008 77.7478C107.326 77.1563 106.457 76.8433 105.566 76.8681C104.674 76.8929 103.823 77.2537 103.172 77.8823C102.522 78.5109 102.118 79.3635 102.037 80.2786C101.955 81.1937 102.203 82.1077 102.732 82.8474V82.8473Z"
            fill="#9E616A" />
        <path
            d="M148.072 109.321L137.919 112.734L141.31 186.833L149.146 187.033L153.156 134.777L154.067 186.827L163.756 187.377L167.328 109.321H148.072Z"
            fill="#2F2E41" />
        <path
            d="M141.221 65.6399L167.28 59.8052L170.177 82.9281L167.765 93.9764L168.731 110.767C168.731 110.767 148.126 121.335 137.919 112.733C137.919 112.733 146.123 90.5262 141.367 80.1305L141.221 65.6399Z"
            fill="#E4E4E4" />
        <path
            d="M145.734 68.9106L141.221 65.6399C141.221 65.6399 140.955 65.2594 137.194 69.7902C133.433 74.321 125.804 81.528 125.804 81.528L113.089 76.6142L110.772 85.4345L125.55 92.5314L146.472 78.1322L145.734 68.9106Z"
            fill="#E4E4E4" />
        <path
            d="M168.736 119.434C169.215 119.201 169.638 118.863 169.976 118.443C170.314 118.023 170.559 117.531 170.693 117.003C170.827 116.475 170.847 115.923 170.752 115.387C170.656 114.85 170.448 114.341 170.141 113.896L174.536 106.666L170.925 102.842L164.857 113.142C164.166 113.722 163.706 114.544 163.563 115.451C163.421 116.358 163.606 117.288 164.084 118.063C164.562 118.839 165.3 119.407 166.157 119.66C167.014 119.912 167.932 119.832 168.736 119.434Z"
            fill="#9E616A" />
        <path
            d="M163.215 64.3603L167.28 59.8052C167.28 59.8052 171.808 58.18 175.508 66.5781C179.208 74.9762 183.341 92.0109 183.341 92.0109L173.679 111.19L166.175 107.735L173.679 91.8755L165.738 80.1305L163.215 64.3603Z"
            fill="#E4E4E4" />
        <path
            d="M156.323 57.9086C160.422 55.5994 161.929 50.303 159.688 46.0788C157.447 41.8545 152.308 40.3021 148.209 42.6112C144.11 44.9204 142.603 50.2168 144.844 54.4411C147.085 58.6653 152.224 60.2178 156.323 57.9086Z"
            fill="#9E616A" />
        <path
            d="M159.399 42.4651C158.999 40.7341 157.598 39.3679 155.988 38.7273C154.377 38.0866 152.583 38.0928 150.881 38.3909C148.055 38.8856 145.417 40.1413 142.817 41.3844L144.821 42.3724L142.055 42.5359L144.192 43.6746C143.622 44.1222 143.187 44.7289 142.941 45.423C142.695 46.1171 142.648 46.8694 142.804 47.5905C142.914 48.0625 143.208 48.5826 143.679 48.5989C144.248 48.6186 144.545 47.9352 144.943 47.516C145.473 46.9583 146.31 46.8345 147.06 46.9396C147.811 47.0447 148.523 47.3423 149.263 47.5068C150.199 47.7078 151.167 47.6967 152.098 47.4743C153.03 47.2519 153.904 46.8234 154.659 46.2185L157.323 52.8306C157.298 52.5812 157.329 52.3292 157.414 52.0943C157.499 51.8594 157.636 51.648 157.813 51.4764C157.991 51.3049 158.204 51.1779 158.437 51.1054C158.67 51.0329 158.916 51.0169 159.156 51.0586C159.396 51.1003 159.623 51.1986 159.82 51.3457C160.017 51.4929 160.178 51.685 160.291 51.907C160.404 52.129 160.466 52.3749 160.471 52.6255C160.477 52.8762 160.426 53.1247 160.323 53.3518C161.476 51.5589 162.404 49.5219 162.436 47.371C162.468 45.2201 161.433 42.9541 159.538 42.0516"
            fill="#2F2E41" />
        <path
            d="M61.3707 176.033L57.7677 181.87L59.8663 174.271C55.4352 169.506 49.3008 166.02 49.3008 166.02C49.3008 166.02 41.7473 178.814 43.7803 186.683C45.8133 194.553 51.0629 196.055 56.6631 194.519C62.2631 192.983 66.093 188.989 64.06 181.12C63.6074 179.368 62.6245 177.648 61.3707 176.033Z"
            fill="#F2F2F2" />
        <path
            d="M56.6036 182.452L56.7038 182.84C57.8462 187.355 58.0172 191.076 57.2092 193.95C57.1982 193.992 57.1847 194.033 57.1737 194.075L56.9853 194.018L56.8048 193.96C57.72 190.845 57.3116 186.908 56.3161 182.969C56.2852 182.842 56.2538 182.713 56.2187 182.585C55.783 180.921 55.2492 179.264 54.6681 177.672C54.6242 177.548 54.5779 177.423 54.5316 177.298C53.7541 175.2 52.9045 173.224 52.1174 171.521C52.0623 171.401 52.0054 171.281 51.9489 171.163C50.6052 168.286 49.466 166.248 49.2101 165.798C49.1798 165.743 49.1621 165.713 49.1582 165.705L49.3218 165.605L49.3232 165.603L49.4887 165.502C49.4926 165.509 49.5525 165.61 49.6573 165.799C50.0531 166.505 51.1044 168.427 52.3166 171.01C52.3707 171.127 52.4277 171.247 52.4828 171.368C53.1229 172.749 53.8017 174.302 54.4472 175.951C54.61 176.365 54.7657 176.775 54.9144 177.18C54.9625 177.305 55.0088 177.43 55.0527 177.554C55.681 179.275 56.198 180.908 56.6036 182.452Z"
            fill="white" />
        <path
            d="M52.3166 171.01C52.1962 171.062 52.074 171.114 51.9489 171.163C51.6093 171.295 51.2633 171.41 50.9123 171.507C49.4169 171.919 47.8507 171.98 46.3292 171.686C46.2772 171.81 46.2252 171.933 46.1719 172.059C47.7765 172.383 49.4318 172.326 51.0115 171.891C51.3862 171.788 51.7554 171.664 52.1174 171.521C52.2407 171.473 52.3629 171.421 52.4828 171.368C53.474 170.933 54.3954 170.345 55.2154 169.625C55.108 169.541 55.0029 169.459 54.9002 169.378C54.1217 170.05 53.2511 170.6 52.3166 171.01Z"
            fill="white" />
        <path
            d="M54.9144 177.18C54.7878 177.223 54.6602 177.262 54.5316 177.298C54.493 177.31 54.452 177.322 54.4128 177.332C52.7919 177.777 51.0906 177.811 49.4541 177.432C47.8176 177.053 46.2943 176.271 45.0141 175.154C44.9688 175.288 44.9236 175.422 44.8807 175.557C46.2042 176.68 47.7682 177.461 49.4431 177.836C51.118 178.212 52.8557 178.171 54.5121 177.716C54.5643 177.702 54.6164 177.688 54.6681 177.672C54.798 177.634 54.9256 177.595 55.0527 177.554C57.0152 176.903 58.7542 175.683 60.0619 174.041C59.973 173.944 59.884 173.847 59.7933 173.75C58.5255 175.359 56.8299 176.551 54.9144 177.18Z"
            fill="white" />
        <path
            d="M56.6036 182.452C56.4761 182.5 56.3476 182.543 56.2187 182.585C56.0804 182.629 55.9417 182.671 55.8019 182.709C53.6231 183.304 51.3159 183.156 49.2258 182.287C47.1356 181.417 45.3749 179.874 44.2073 177.887C44.1637 178.065 44.1195 178.242 44.0796 178.419C45.3233 180.38 47.1349 181.887 49.2571 182.726C51.3792 183.565 53.704 183.694 55.9011 183.093C56.0409 183.055 56.1801 183.015 56.3161 182.969C56.4474 182.929 56.5758 182.886 56.7038 182.84C59.2836 181.905 61.4222 179.994 62.6864 177.495C62.6105 177.364 62.5296 177.236 62.4482 177.106C61.2487 179.604 59.1522 181.521 56.6036 182.452Z"
            fill="white" />
        <path
            d="M201.914 176.642L198.364 182.394L200.432 174.905C196.065 170.21 190.02 166.775 190.02 166.775C190.02 166.775 182.576 179.382 184.579 187.137C186.583 194.893 191.756 196.373 197.275 194.859C202.794 193.345 206.568 189.41 204.564 181.654C204.119 179.928 203.15 178.234 201.914 176.642Z"
            fill="#F2F2F2" />
        <path
            d="M197.216 182.968L197.315 183.35C198.441 187.8 198.609 191.466 197.813 194.299C197.802 194.34 197.789 194.38 197.778 194.422L197.593 194.365L197.415 194.309C198.317 191.238 197.914 187.358 196.933 183.477C196.903 183.352 196.872 183.225 196.837 183.098C196.408 181.459 195.882 179.826 195.309 178.257C195.266 178.135 195.22 178.011 195.175 177.888C194.408 175.82 193.571 173.874 192.795 172.196C192.741 172.077 192.685 171.958 192.629 171.842C191.305 169.007 190.183 166.999 189.93 166.555C189.9 166.501 189.883 166.471 189.879 166.464L190.04 166.365L190.042 166.363L190.205 166.263C190.209 166.27 190.268 166.37 190.371 166.556C190.761 167.252 191.797 169.146 192.992 171.692C193.045 171.807 193.101 171.925 193.155 172.044C193.786 173.405 194.455 174.936 195.091 176.561C195.252 176.969 195.405 177.373 195.552 177.772C195.599 177.895 195.645 178.018 195.688 178.14C196.307 179.837 196.817 181.446 197.216 182.968Z"
            fill="white" />
        <path
            d="M192.992 171.692C192.873 171.743 192.753 171.794 192.629 171.842C192.295 171.973 191.954 172.086 191.608 172.181C190.134 172.587 188.591 172.648 187.091 172.358C187.04 172.48 186.989 172.601 186.936 172.725C188.518 173.045 190.149 172.988 191.706 172.559C192.075 172.458 192.439 172.337 192.795 172.196C192.917 172.148 193.037 172.097 193.156 172.044C194.132 171.615 195.04 171.036 195.848 170.327C195.743 170.244 195.639 170.163 195.538 170.083C194.771 170.746 193.913 171.288 192.992 171.692Z"
            fill="white" />
        <path
            d="M195.552 177.772C195.427 177.815 195.301 177.853 195.175 177.888C195.136 177.901 195.096 177.912 195.057 177.922C193.46 178.361 191.784 178.394 190.171 178.021C188.558 177.647 187.057 176.877 185.795 175.776C185.751 175.908 185.706 176.04 185.664 176.173C186.968 177.279 188.509 178.049 190.16 178.419C191.811 178.789 193.523 178.748 195.155 178.301C195.207 178.287 195.258 178.273 195.309 178.257C195.437 178.219 195.563 178.181 195.688 178.14C197.622 177.499 199.336 176.297 200.624 174.678C200.537 174.583 200.449 174.487 200.36 174.392C199.11 175.977 197.439 177.152 195.552 177.772Z"
            fill="white" />
        <path
            d="M197.216 182.968C197.091 183.014 196.964 183.057 196.837 183.098C196.701 183.142 196.564 183.183 196.426 183.221C194.279 183.807 192.006 183.661 189.946 182.805C187.886 181.948 186.151 180.426 185 178.468C184.957 178.644 184.914 178.819 184.874 178.993C186.1 180.926 187.885 182.411 189.977 183.237C192.068 184.064 194.359 184.191 196.524 183.6C196.662 183.562 196.799 183.522 196.933 183.477C197.062 183.438 197.189 183.395 197.315 183.35C199.857 182.428 201.965 180.546 203.211 178.083C203.136 177.953 203.056 177.827 202.976 177.699C201.794 180.16 199.728 182.05 197.216 182.968Z"
            fill="white" />
        <path
            d="M128.427 33.7185C128.427 19.9578 119.118 8.80249 107.634 8.80249C96.1506 8.80249 86.8413 19.9578 86.8413 33.7185C86.8413 46.1989 94.499 56.5358 104.491 58.3513V60.6994C104.491 61.143 104.662 61.5684 104.966 61.882C105.271 62.1957 105.684 62.3719 106.114 62.3719H109.154C109.585 62.3719 109.998 62.1957 110.302 61.882C110.606 61.5684 110.777 61.143 110.777 60.6994V58.3514C120.769 56.5358 128.427 46.1989 128.427 33.7185Z"
            fill="#E63946" />
        <path
            d="M103.991 60.36C104.642 59.7304 105.417 59.2533 106.263 58.9615C107.11 58.6697 108.007 58.5702 108.895 58.6697C109.789 58.7765 110.647 59.0959 111.401 59.6026C112.155 60.1093 112.784 60.7896 113.24 61.5897C113.695 62.3662 113.981 63.2354 114.078 64.1372C114.175 65.039 114.081 65.9517 113.801 66.812C113.254 68.5278 112.093 69.9558 110.902 71.2427C109.652 72.5929 108.293 73.838 107.119 75.2609C105.182 77.6212 103.829 80.4305 103.177 83.4478C102.525 86.4651 102.592 89.6004 103.374 92.5847C104.405 96.3674 106.533 99.735 109.473 102.236C109.847 102.55 110.231 102.85 110.627 103.134C111.085 103.465 111.518 102.691 111.064 102.364C107.872 100.036 105.513 96.6899 104.352 92.8421C103.471 89.8435 103.358 86.6612 104.024 83.6046C104.691 80.5479 106.113 77.7209 108.153 75.3983C109.392 73.9884 110.779 72.7263 112.018 71.316C113.205 69.965 114.287 68.4407 114.75 66.6558C114.985 65.7483 115.043 64.8019 114.921 63.8712C114.8 62.9404 114.501 62.0437 114.041 61.2325C113.584 60.4033 112.966 59.6803 112.225 59.1089C111.484 58.5375 110.636 58.13 109.735 57.9119C107.922 57.5059 106.028 57.844 104.453 58.8543C104.067 59.1079 103.707 59.4008 103.379 59.7287C102.976 60.128 103.589 60.7589 103.991 60.36V60.36Z"
            fill="#3F3D56" />
        <path
            d="M48.3021 23.2848C41.94 8.21264 26.586 0.565129 14.008 6.20363C1.42996 11.8421 -3.60896 28.6314 2.75316 43.7036C8.52333 57.3733 21.6899 64.9354 33.4737 62.0179L34.5593 64.5897C34.7644 65.0755 35.1483 65.4575 35.6267 65.6516C36.1051 65.8457 36.6387 65.8361 37.1101 65.6247L40.4403 64.1319C40.9117 63.9205 41.2824 63.5248 41.4707 63.0318C41.6591 62.5389 41.6497 61.989 41.4446 61.5031L40.359 58.9313C50.464 52.0365 54.0723 36.9546 48.3021 23.2848Z"
            fill="#E63946" />
        <path
            d="M33.7911 64.3867C34.2045 63.4053 34.8133 62.5244 35.5782 61.801C36.343 61.0775 37.2468 60.5278 38.2309 60.1872C39.1973 59.8519 40.2232 59.7382 41.2367 59.8543C42.2502 59.9703 43.2268 60.3132 44.0982 60.859C44.996 61.4071 45.77 62.1461 46.3688 63.0267C46.9675 63.9074 47.3772 64.9095 47.5705 65.9662C48.0146 68.4151 47.2941 70.9095 46.4754 73.1895C45.6171 75.5795 44.5476 77.9007 43.9509 80.3827C43.1204 83.871 43.1036 87.5125 43.9019 91.0088C44.7002 94.5051 46.2908 97.7568 48.5435 100.497C51.3808 103.886 55.1175 106.345 59.2937 107.573C59.806 107.721 60.3236 107.848 60.8453 107.957C61.3896 108.071 61.6225 107.21 61.0756 107.096C56.7304 106.174 52.7705 103.884 49.7436 100.542C46.5349 96.9667 44.5966 92.3766 44.2448 87.5204C44.0564 85.0599 44.2752 82.5844 44.8919 80.1996C45.5502 77.683 46.6645 75.3268 47.5046 72.8749C48.3062 70.5351 48.8743 68.0225 48.3707 65.5465C47.9076 63.3664 46.6239 61.4648 44.8014 60.2593C43.928 59.6658 42.9488 59.2571 41.9208 59.057C40.8927 58.8568 39.8363 58.8692 38.813 59.0935C36.7231 59.5814 34.8921 60.8714 33.6925 62.7012C33.4007 63.1574 33.1539 63.6426 32.9557 64.1494C32.7427 64.6798 33.5806 64.911 33.7911 64.3867L33.7911 64.3867Z"
            fill="#3F3D56" />
        <path d="M226.022 205.335L230.692 205.335L232.913 186.772L226.021 186.772L226.022 205.335Z"
            fill="#FFB6B6" />
        <path
            d="M224.831 203.764L234.027 203.763H234.028C235.582 203.763 237.073 204.4 238.172 205.532C239.271 206.665 239.889 208.201 239.889 209.803V209.999L224.831 210L224.831 203.764Z"
            fill="#2F2E41" />
        <path d="M198.381 201.243L202.834 202.694L210.385 185.686L203.813 183.544L198.381 201.243Z"
            fill="#FFB6B6" />
        <path
            d="M197.705 199.374L206.474 202.233L206.474 202.233C207.956 202.716 209.191 203.786 209.908 205.207C210.624 206.629 210.763 208.286 210.294 209.813L210.237 210L195.88 205.32L197.705 199.374Z"
            fill="#2F2E41" />
        <path
            d="M208.896 120.558L206.305 128.09L206.231 168.752L198.882 196.592L207.903 199.187L217.869 172.936L221.065 149.879L225.277 173.07L224.697 200.635H234.162L234.877 158.157C235.077 146.228 233.052 134.37 228.91 123.228V123.228L208.896 120.558Z"
            fill="#2F2E41" />
        <path
            d="M205.81 90.0472H221.109L227.502 96.635L229.411 123.866L206.305 127.698L198.882 101.716L202.924 90.6733L205.81 90.0472Z"
            fill="#E4E4E4" />
        <path
            d="M200.308 101.976L176.752 92.8423L176.139 89.0669L190.995 76.1129L195.939 79.9348L186.977 90.0472L202.924 90.6734L200.308 101.976Z"
            fill="#E4E4E4" />
        <path
            d="M193.852 81.4113C195.955 81.4113 197.661 79.6539 197.661 77.4859C197.661 75.318 195.955 73.5605 193.852 73.5605C191.748 73.5605 190.042 75.318 190.042 77.4859C190.042 79.6539 191.748 81.4113 193.852 81.4113Z"
            fill="#FFB6B6" />
        <path
            d="M202.686 82.4311L204.407 74.4326C204.709 73.024 205.277 71.6904 206.079 70.5081C206.881 69.3259 207.902 68.3181 209.082 67.5425C210.262 66.7669 211.579 66.2386 212.958 65.9879C214.336 65.7371 215.749 65.7688 217.116 66.0812C218.483 66.3935 219.776 66.9803 220.923 67.8081C222.069 68.6359 223.046 69.6885 223.797 70.9056C224.549 72.1227 225.06 73.4805 225.302 74.9014C225.544 76.3222 225.512 77.7783 225.208 79.1864L223.486 87.1849C223.404 87.5665 223.178 87.8988 222.858 88.1089C222.538 88.3189 222.15 88.3896 221.78 88.3054L203.773 84.1902C203.403 84.1051 203.08 83.8721 202.876 83.5423C202.672 83.2126 202.604 82.8129 202.686 82.4311Z"
            fill="#2F2E41" />
        <path
            d="M214.544 85.446C218.687 84.2088 221.073 79.7446 219.872 75.475C218.671 71.2053 214.34 68.7469 210.196 69.9841C206.053 71.2213 203.668 75.6855 204.868 79.9552C206.069 84.2249 210.401 86.6832 214.544 85.446Z"
            fill="#FFB6B6" />
        <path
            d="M201.809 74.5102C202.295 72.2629 203.626 70.3062 205.511 69.0692C207.395 67.8322 209.679 67.4161 211.86 67.912L213.413 68.2668C215.593 68.7678 217.492 70.1398 218.693 72.0818C219.893 74.0237 220.297 76.377 219.815 78.6254L219.781 78.7854L216.5 78.0356L216.076 74.5511L215.158 77.7288L213.462 77.3413L213.248 75.5832L212.785 77.1865L201.774 74.6701L201.809 74.5102Z"
            fill="#2F2E41" />
        <path
            d="M209.695 86.4872C209.587 86.2371 209.55 85.9607 209.588 85.6898C209.626 85.419 209.738 85.1647 209.91 84.9563C212.249 82.1078 215.834 76.6762 213.567 72.3033L213.405 71.989L222.28 74.0174L219.325 87.7491L210.947 87.3725C210.862 87.3688 210.778 87.3574 210.695 87.3385C210.475 87.2882 210.269 87.1848 210.095 87.0368C209.922 86.8888 209.784 86.7005 209.695 86.4872Z"
            fill="#2F2E41" />
        <path
            d="M220.501 90.2121L245.417 93.8631L246.811 97.4118L235.035 113.378L229.404 110.752L236.024 98.8772L220.325 101.83L220.501 90.2121Z"
            fill="#E4E4E4" />
        <path
            d="M257.805 38.45C257.805 22.0135 246.685 8.68918 232.969 8.68918C219.252 8.68918 208.133 22.0135 208.133 38.45C208.133 53.3571 217.28 65.7039 229.215 67.8725V70.6771C229.215 71.2069 229.419 71.7151 229.782 72.0897C230.146 72.4644 230.639 72.6748 231.153 72.6749H234.785C235.299 72.6748 235.792 72.4644 236.155 72.0897C236.519 71.7151 236.723 71.2069 236.723 70.6771V67.8725C248.658 65.7039 257.805 53.3571 257.805 38.45Z"
            fill="#E63946" />
        <path
            d="M228.558 70.2104C229.347 69.4466 230.287 68.8685 231.313 68.5161C232.34 68.1637 233.429 68.0454 234.504 68.1693C235.561 68.2976 236.575 68.672 237.47 69.2641C238.366 69.8562 239.119 70.6505 239.672 71.5868C240.235 72.5109 240.597 73.5497 240.734 74.6319C240.87 75.714 240.777 76.8137 240.462 77.8553C239.849 79.9 238.504 81.612 237.102 83.1465C235.606 84.7835 233.968 86.2803 232.538 87.9813C230.207 90.7729 228.569 94.1062 227.765 97.6945C226.96 101.283 227.013 105.019 227.92 108.581C229.132 113.16 231.694 117.238 235.252 120.252C235.684 120.614 236.129 120.96 236.586 121.289C237.044 121.618 237.477 120.845 237.023 120.518C233.213 117.742 230.391 113.756 228.99 109.17C227.926 105.59 227.775 101.788 228.552 98.1308C229.329 94.4734 231.008 91.0842 233.426 88.2903C234.896 86.5994 236.552 85.0931 238.038 83.4185C239.462 81.8149 240.769 80.0146 241.354 77.8956C241.648 76.8253 241.734 75.7056 241.605 74.601C241.477 73.4965 241.138 72.4291 240.606 71.4607C240.078 70.4704 239.356 69.6033 238.486 68.9139C237.617 68.2246 236.619 67.7277 235.554 67.4546C233.391 66.9422 231.119 67.3305 229.233 68.5351C228.77 68.8366 228.339 69.1865 227.945 69.579C227.544 69.979 228.157 70.6099 228.558 70.2104Z"
            fill="#3F3D56" />
        <path
            d="M231.562 117.918C233.666 117.918 235.371 116.16 235.371 113.992C235.371 111.824 233.666 110.067 231.562 110.067C229.458 110.067 227.753 111.824 227.753 113.992C227.753 116.16 229.458 117.918 231.562 117.918Z"
            fill="#FFB6B6" />
        <path
            d="M191.868 78.5879C191.669 78.9134 191.184 78.8661 190.913 78.6626C190.535 78.3801 190.657 77.8358 190.917 77.5143C191.743 76.4923 193.11 77.5713 193.294 78.5862C193.362 79.0811 193.288 79.5858 193.081 80.0378C192.874 80.4898 192.543 80.8691 192.128 81.1288C191.185 81.7044 189.961 81.4157 189.151 80.7268C187.46 79.2897 187.921 76.4124 189.798 75.3728C190.997 74.7093 192.512 75.0005 193.692 75.5563C195.021 76.1819 196.164 77.1409 197.392 77.9402C200.089 79.6796 203.139 80.7529 206.304 81.0763C206.859 81.1345 206.855 80.2413 206.304 80.1834C204.55 79.9966 202.828 79.5692 201.184 78.9128C199.557 78.2332 198.012 77.3597 196.582 76.3101C195.135 75.2881 193.624 74.2952 191.833 74.1263C191.11 74.0394 190.378 74.1511 189.711 74.4502C189.044 74.7494 188.466 75.2252 188.035 75.8294C187.652 76.37 187.395 76.9947 187.286 77.6546C187.176 78.3144 187.216 78.9915 187.403 79.6327C187.628 80.3033 188.021 80.9004 188.543 81.3633C189.065 81.8262 189.696 82.1384 190.373 82.2681C191.025 82.395 191.698 82.3091 192.3 82.0225C192.902 81.7359 193.403 81.2628 193.731 80.6692C194.39 79.4945 194.369 77.9166 193.373 76.9427C193.088 76.6438 192.731 76.4283 192.338 76.3183C191.946 76.2083 191.532 76.2076 191.139 76.3164C190.777 76.4424 190.458 76.6745 190.222 76.9841C189.986 77.2938 189.842 77.6676 189.809 78.0599C189.713 79.5847 191.814 80.3472 192.616 79.0385C192.915 78.5514 192.166 78.1029 191.868 78.5879Z"
            fill="#3F3D56" />
        <path d="M18.5392 126.57L17.395 128.049L13.3479 125.582L14.4921 124.102L18.5392 126.57Z"
            fill="#E4E4E4" />
        <path d="M22.7621 132.927L23.7729 134.481L19.5213 136.661L18.5106 135.106L22.7621 132.927Z"
            fill="#E4E4E4" />
        <path d="M27.1633 126.169L29.1831 126.243L28.9821 130.598L26.9623 130.525L27.1633 126.169Z"
            fill="#E4E4E4" />
        <path d="M66.1895 8.71722L65.0453 10.1966L60.9982 7.72946L62.1424 6.24976L66.1895 8.71722Z"
            fill="#E4E4E4" />
        <path d="M70.4125 15.0741L71.4232 16.6285L67.1716 18.8079L66.1609 17.2535L70.4125 15.0741Z"
            fill="#E4E4E4" />
        <path d="M74.8136 8.31665L76.8334 8.39016L76.6324 12.7454L74.6126 12.6718L74.8136 8.31665Z"
            fill="#E4E4E4" />
        <path d="M178.529 24.1928L177.384 25.6722L173.337 23.2051L174.482 21.7254L178.529 24.1928Z"
            fill="#E4E4E4" />
        <path d="M182.752 30.5497L183.762 32.1041L179.511 34.2835L178.5 32.7291L182.752 30.5497Z"
            fill="#E4E4E4" />
        <path d="M187.153 23.7923L189.173 23.8658L188.972 28.221L186.952 28.1475L187.153 23.7923Z"
            fill="#E4E4E4" />
        <path d="M144.163 2.46747L143.018 3.94688L138.971 1.47971L140.116 0L144.163 2.46747Z"
            fill="#E4E4E4" />
        <path d="M148.386 8.82437L149.396 10.3788L145.145 12.5582L144.134 11.0038L148.386 8.82437Z"
            fill="#E4E4E4" />
        <path d="M152.787 2.06689L154.807 2.1404L154.606 6.4956L152.586 6.42209L152.787 2.06689Z"
            fill="#E4E4E4" />
        <path d="M179.102 113.686L177.958 115.404L182.005 118.267L183.149 116.55L179.102 113.686Z"
            fill="#E4E4E4" />
        <path d="M183.121 126.458L184.131 128.262L188.383 125.733L187.372 123.929L183.121 126.458Z"
            fill="#E4E4E4" />
        <path d="M191.572 121.14L193.592 121.225L193.793 116.17L191.773 116.085L191.572 121.14Z"
            fill="#E4E4E4" />
        <path d="M93.2499 191.621L96.7486 191.063L94.3499 162.255L86.5526 163.743L93.2499 191.621Z"
            fill="#FFB6B6" />
        <path
            d="M92.1806 190.586L99.0713 189.488L99.0716 189.488C100.236 189.302 101.425 189.601 102.375 190.319C103.326 191.036 103.962 192.113 104.142 193.313L104.164 193.461L92.8818 195.258L92.1806 190.586Z"
            fill="#2F2E41" />
        <path d="M56.4763 191.264L60.0134 191.419L64.3158 165.826L56.5184 165.826L56.4763 191.264Z"
            fill="#FFB6B6" />
        <path
            d="M55.6231 190.034L62.5893 190.34H62.5896C63.767 190.392 64.8762 190.923 65.6732 191.818C66.4703 192.712 66.8899 193.896 66.8398 195.11L66.8336 195.258L55.4279 194.758L55.6231 190.034Z"
            fill="#2F2E41" />
        <path
            d="M63.4406 107.88C63.2736 107.832 63.1028 107.799 62.9301 107.782L65.1353 89.1814L72.6175 72.8522C73.0883 71.825 73.1635 70.6521 72.828 69.57C72.4926 68.4879 71.7714 67.5771 70.81 67.0214C69.8486 66.4657 68.7184 66.3064 67.6475 66.5757C66.5766 66.8449 65.6446 67.5226 65.0395 68.4722V68.4722C63.0784 71.5492 61.595 74.9225 60.6428 78.4706L57.4992 90.1834L59.7979 110.27C59.7097 110.836 59.7822 111.416 60.0066 111.941C60.2309 112.466 60.5977 112.912 61.0626 113.227C61.5276 113.542 62.0709 113.712 62.6273 113.716C63.1837 113.72 63.7294 113.559 64.1988 113.251C64.6682 112.943 65.0412 112.502 65.273 111.981C65.5048 111.459 65.5855 110.88 65.5054 110.313C65.4253 109.745 65.1878 109.214 64.8215 108.782C64.4552 108.351 63.9757 108.037 63.4406 107.88H63.4406Z"
            fill="#FFB6B6" />
        <path
            d="M67.9835 90.7558L58.5303 79.6114L63.2134 68.2602C63.8266 66.7737 64.9793 65.5931 66.4254 64.9703C67.8715 64.3474 69.4966 64.3317 70.9538 64.9264C72.411 65.5212 73.585 66.6793 74.2252 68.1536C74.8654 69.6279 74.9211 71.3017 74.3804 72.8178L67.9835 90.7558Z"
            fill="#2F2E41" />
        <path
            d="M83.6977 55.2283C85.9721 50.9407 84.443 45.565 80.2825 43.2212C76.122 40.8774 70.9056 42.4532 68.6312 46.7407C66.3569 51.0282 67.8859 56.404 72.0464 58.7478C76.2069 61.0915 81.4234 59.5158 83.6977 55.2283Z"
            fill="#FFB6B6" />
        <path
            d="M77.6001 40.2356H72.0541C68.4183 40.2356 65.4709 43.6527 65.4709 47.8679L65.7275 58.0921C69.6561 58.5957 73.4986 59.6548 77.1466 61.2395L77.6642 58.9614L78.6853 61.9616C79.5934 62.415 80.4938 62.9108 81.3865 63.449C80.3446 58.4042 79.9158 53.3712 80.6311 49.4614H82.5095V47.343L83.1472 49.4614H86.5526V49.4614C86.5526 48.2499 86.321 47.0502 85.8711 45.9308C85.4212 44.8115 84.7618 43.7945 83.9305 42.9378C83.0991 42.0811 82.1122 41.4015 81.0261 40.9379C79.9399 40.4742 78.7757 40.2356 77.6001 40.2356Z"
            fill="#2F2E41" />
        <path
            d="M95.6833 163.82L94.8798 164.019L94.2055 151.094L89.296 112.405L83.6646 97.6739L86.4081 87.4064C86.4081 87.4064 89.5848 80.2639 81.6431 74.7581L75.2897 63.7466C70.9011 60.7895 67.2902 62.7231 65.3654 67.7495C63.6882 72.1291 62.3863 77.6697 63.1606 83.3887C64.8951 96.1994 66.3372 97.6739 66.3372 97.6739C66.3372 97.6739 55.5076 110.025 57.818 125.798L56.5304 166.637L55.3524 166.587L55.2234 169.831L65.5147 170.266L65.6438 167.022L64.7901 166.986L68.5032 150.797L73.9902 129.369L83.5203 155.559L86.7257 166.043L85.6697 166.305L86.4073 169.461L96.4209 166.976L95.6833 163.82Z"
            fill="#2F2E41" />
        <path
            d="M102.756 90.4848C102.639 90.6172 102.534 90.76 102.442 90.9117L87.28 80.5677L76.4474 66.3735C75.766 65.4805 74.7813 64.8871 73.692 64.7129C72.6028 64.5387 71.4899 64.7966 70.5779 65.4347C69.6659 66.0728 69.0227 67.0436 68.7779 68.1512C68.5331 69.2588 68.7051 70.4209 69.259 71.403C71.054 74.5858 73.3197 77.4607 75.9744 79.9239L84.738 88.0555L103.202 94.911C103.655 95.2452 104.191 95.4377 104.746 95.4653C105.302 95.4929 105.854 95.3543 106.335 95.0664C106.816 94.7785 107.206 94.3534 107.459 93.8423C107.711 93.3312 107.814 92.7559 107.757 92.1856C107.699 91.6153 107.483 91.0743 107.134 90.6277C106.785 90.181 106.318 89.8478 105.79 89.6682C105.262 89.4885 104.694 89.47 104.156 89.6149C103.617 89.7597 103.131 90.0619 102.756 90.4848H102.756Z"
            fill="#FFB6B6" />
        <path
            d="M89.9194 78.6453L76.0209 82.3812L68.259 72.9918C67.2426 71.7623 66.7327 70.1721 66.8381 68.5606C66.9436 66.9491 67.656 65.4438 68.8234 64.3661C69.9908 63.2883 71.5208 62.7234 73.0867 62.792C74.6526 62.8605 76.1305 63.557 77.2051 64.7328L89.9194 78.6453Z"
            fill="#2F2E41" />
        <path
            d="M197.646 195.562H10.7142C10.623 195.562 10.5355 195.524 10.471 195.458C10.4065 195.391 10.3703 195.301 10.3703 195.207C10.3703 195.113 10.4065 195.023 10.471 194.957C10.5355 194.89 10.623 194.853 10.7142 194.853H197.646C197.737 194.853 197.825 194.89 197.889 194.957C197.954 195.023 197.99 195.113 197.99 195.207C197.99 195.301 197.954 195.391 197.889 195.458C197.825 195.524 197.737 195.562 197.646 195.562Z"
            fill="#CACACA" />
    </g>
    <defs>
        <clipPath id="clip0_262_3814">
            <rect width="257.805" height="210" fill="white" />
        </clipPath>
    </defs>
</svg>