<svg width="371" height="316" viewBox="0 0 371 316" fill="none" xmlns="http://www.w3.org/2000/svg">
    <g clip-path="url(#clip0_12_1434)">
        <path
            d="M81.5685 120.573C69.0892 106.599 46.249 103.227 34.8993 110.323C23.5495 117.42 20.9424 136.704 33.4217 150.678C44.9729 163.613 65.9007 167.14 77.4277 162.294C77.3905 162.446 77.3882 162.601 77.421 162.753L78.0708 165.442C78.1204 165.647 78.2317 165.838 78.3943 165.996C78.5568 166.155 78.7651 166.277 78.9995 166.349C79.2339 166.422 79.4865 166.443 79.7334 166.411C79.9803 166.378 80.2133 166.294 80.4102 166.165L85.9134 162.568C86.1103 162.439 86.2647 162.27 86.3618 162.078C86.4589 161.885 86.4955 161.675 86.4682 161.467C86.4408 161.259 86.3505 161.061 86.2056 160.89C86.0608 160.72 85.8664 160.583 85.6407 160.493L82.6804 159.315C82.5763 159.276 82.4669 159.247 82.3547 159.23C91.2397 151.37 93.1448 133.536 81.5685 120.573Z"
            fill="#CCCCCC" />
        <path
            d="M54.2715 115.298C60.3759 116.109 65.8752 118.85 69.634 122.956C73.3928 127.062 75.1243 132.218 74.471 137.361C74.3369 138.54 76.5367 138.532 76.67 137.361C77.2992 131.818 75.4006 126.281 71.355 121.86C67.3093 117.439 61.4157 114.461 54.856 113.523C53.4719 113.326 52.8771 115.099 54.2715 115.298Z"
            fill="white" />
        <path
            d="M368.302 138.069C375.017 121.554 365.423 103.886 352.01 100.067C338.597 96.2484 318.116 105.355 311.401 121.87C305.185 137.157 313.544 153.594 324.84 158.808C324.67 158.867 324.515 158.954 324.383 159.063L322.101 161.031C321.927 161.182 321.802 161.366 321.737 161.568C321.673 161.77 321.671 161.983 321.732 162.185C321.793 162.388 321.915 162.575 322.087 162.727C322.258 162.879 322.473 162.992 322.711 163.055L329.369 164.818C329.608 164.881 329.861 164.892 330.106 164.85C330.351 164.808 330.579 164.715 330.768 164.578C330.957 164.442 331.102 164.267 331.188 164.071C331.274 163.875 331.299 163.663 331.26 163.457L330.747 160.747C330.726 160.653 330.693 160.562 330.647 160.474C343.418 162.16 362.073 153.389 368.302 138.069Z"
            fill="#CCCCCC" />
        <path
            d="M358.064 116.248C360.717 120.92 361.125 126.265 359.204 131.181C357.283 136.097 353.18 140.208 347.741 142.666C346.504 143.24 347.756 144.754 348.985 144.184C354.805 141.483 359.189 137.041 361.258 131.749C363.327 126.456 362.929 120.705 360.143 115.648C359.554 114.582 357.471 115.174 358.064 116.248Z"
            fill="white" />
        <path
            d="M210.547 30.4698C209.634 13.042 193.027 -0.504395 178.872 0.0144173C164.717 0.53323 149.588 15.2428 150.5 32.6707C151.345 48.8022 166.268 61.576 179.055 63.0008C178.922 63.1083 178.816 63.2361 178.74 63.3771L177.469 65.9052C177.372 66.0979 177.335 66.3081 177.363 66.516C177.39 66.7238 177.481 66.9223 177.626 67.0926C177.771 67.2629 177.965 67.3994 178.191 67.4891C178.417 67.5788 178.666 67.6187 178.916 67.6051L185.884 67.2242C186.134 67.2106 186.375 67.1438 186.584 67.0303C186.794 66.9168 186.966 66.7603 187.083 66.5757C187.201 66.391 187.259 66.1844 187.254 65.9753C187.249 65.7663 187.181 65.5617 187.054 65.3812L185.4 63.0131C185.341 62.9317 185.27 62.8564 185.189 62.7889C197.82 60.4782 211.393 46.6365 210.547 30.4698Z"
            fill="#E63946" />
        <path
            d="M191.536 13.2508C196.035 16.797 198.736 21.6532 199.08 26.8172C199.424 31.9811 197.386 37.0586 193.386 41.0015C192.483 41.912 194.306 42.9419 195.203 42.0373C199.453 37.7523 201.609 32.2813 201.24 26.7216C200.871 21.1619 198.004 15.9245 193.213 12.0598C192.201 11.2451 190.517 12.43 191.536 13.2508Z"
            fill="white" />
        <path
            d="M211.691 181.984C228.188 181.984 241.562 170.794 241.562 156.99C241.562 143.185 228.188 131.995 211.691 131.995C195.194 131.995 181.82 143.185 181.82 156.99C181.82 170.794 195.194 181.984 211.691 181.984Z"
            fill="#E63946" />
        <path
            d="M210.333 315.472H202.096C201.134 315.471 200.212 315.151 199.532 314.581C198.851 314.012 198.469 313.241 198.468 312.436V254.986C198.469 254.181 198.851 253.409 199.532 252.84C200.212 252.271 201.134 251.951 202.096 251.95H210.333C211.295 251.951 212.217 252.271 212.897 252.84C213.578 253.409 213.96 254.181 213.961 254.986V312.436C213.96 313.241 213.578 314.012 212.897 314.581C212.217 315.151 211.295 315.471 210.333 315.472Z"
            fill="#E63946" />
        <path
            d="M236.721 315.472H228.483C227.521 315.471 226.599 315.151 225.919 314.581C225.239 314.012 224.856 313.241 224.855 312.436V254.986C224.856 254.181 225.239 253.409 225.919 252.84C226.599 252.271 227.521 251.951 228.483 251.95H236.721C237.682 251.951 238.605 252.271 239.285 252.84C239.965 253.409 240.347 254.181 240.348 254.986V312.436C240.347 313.241 239.965 314.012 239.285 314.581C238.605 315.151 237.682 315.471 236.721 315.472Z"
            fill="#E63946" />
        <path
            d="M189.737 205.574L186.204 211.801C185.79 212.527 185.049 213.087 184.143 213.357C183.237 213.627 182.239 213.585 181.37 213.241L119.35 188.596C118.482 188.25 117.813 187.63 117.49 186.871C117.167 186.113 117.217 185.279 117.629 184.551L121.163 178.325C121.576 177.598 122.318 177.039 123.224 176.769C124.13 176.499 125.127 176.541 125.996 176.885L188.017 201.53C188.885 201.876 189.554 202.496 189.876 203.254C190.199 204.012 190.149 204.847 189.737 205.574Z"
            fill="#E63946" />
        <path
            d="M199.081 208.912C199.256 209.619 199.122 210.355 198.702 210.987L194.721 217.021C194.255 217.725 193.474 218.246 192.55 218.469C191.626 218.692 190.634 218.599 189.791 218.211L160.646 207.461C159.805 207.071 159.182 206.418 158.916 205.644C158.649 204.871 158.76 204.041 159.224 203.336L159.224 203.336L166.528 191.904C166.758 191.555 167.068 191.247 167.44 190.998C167.813 190.75 168.24 190.565 168.698 190.454C169.155 190.344 169.635 190.31 170.108 190.354C170.581 190.399 171.04 190.521 171.457 190.713L197.632 205.192C198.481 205.584 198.743 207.898 199.012 208.677C199.039 208.755 199.062 208.834 199.081 208.912Z"
            fill="#2F2E41" />
        <path
            d="M234.914 201.53L296.935 176.885C297.804 176.541 298.801 176.499 299.707 176.769C300.613 177.039 301.355 177.598 301.768 178.325L305.302 184.551C305.714 185.279 305.763 186.113 305.441 186.871C305.118 187.63 304.449 188.25 303.581 188.596L241.561 213.241C240.691 213.585 239.694 213.627 238.788 213.357C237.882 213.087 237.141 212.527 236.727 211.801L233.194 205.574C232.782 204.847 232.732 204.013 233.055 203.254C233.377 202.496 234.046 201.876 234.914 201.53Z"
            fill="#E63946" />
        <path
            d="M223.919 208.677C224.188 207.898 224.45 205.584 225.299 205.192L251.474 190.713C251.891 190.521 252.35 190.399 252.823 190.354C253.296 190.31 253.776 190.344 254.233 190.454C254.691 190.565 255.118 190.75 255.491 190.998C255.863 191.247 256.173 191.555 256.403 191.904L263.707 203.336L263.707 203.336C264.171 204.041 264.282 204.871 264.015 205.644C263.749 206.418 263.126 207.071 262.285 207.461L233.14 218.211C232.297 218.599 231.305 218.692 230.381 218.469C229.457 218.246 228.676 217.725 228.21 217.021L224.229 210.987C223.809 210.355 223.675 209.619 223.85 208.912C223.869 208.834 223.892 208.755 223.919 208.677Z"
            fill="#2F2E41" />
        <path
            d="M207.715 166.253L207.684 165.319C209.76 165.271 211.591 165.162 212.967 164.321C213.357 164.069 213.678 163.75 213.907 163.385C214.136 163.02 214.269 162.618 214.296 162.206C214.32 161.955 214.275 161.702 214.163 161.467C214.052 161.233 213.877 161.023 213.653 160.854C212.739 160.209 211.27 160.418 210.199 160.829L209.275 161.183L211.046 150.353L212.152 150.479L210.646 159.692C211.263 159.501 211.927 159.442 212.578 159.52C213.229 159.598 213.846 159.812 214.373 160.141C214.728 160.4 215.006 160.724 215.186 161.088C215.366 161.452 215.443 161.846 215.412 162.239C215.379 162.792 215.202 163.333 214.894 163.823C214.585 164.313 214.152 164.74 213.625 165.075C211.858 166.156 209.561 166.21 207.715 166.253Z"
            fill="#2F2E41" />
        <path d="M223.634 151.274H217.622V152.208H223.634V151.274Z" fill="#2F2E41" />
        <path d="M204.657 151.274H198.645V152.208H204.657V151.274Z" fill="#2F2E41" />
        <path
            d="M221.989 193.666H223.193C223.675 193.667 224.152 193.588 224.597 193.434C225.042 193.28 225.447 193.055 225.788 192.77C226.128 192.485 226.399 192.147 226.583 191.774C226.768 191.402 226.863 191.003 226.863 190.6C226.863 190.197 226.768 189.798 226.583 189.425C226.399 189.053 226.128 188.715 225.788 188.43C225.447 188.145 225.042 187.919 224.597 187.766C224.152 187.612 223.675 187.533 223.193 187.533H199.738C198.767 187.534 197.836 187.858 197.149 188.433C196.463 189.008 196.078 189.787 196.078 190.6C196.078 191.413 196.463 192.192 197.149 192.767C197.836 193.342 198.767 193.665 199.738 193.666H201.941C183.117 200.833 171.039 227.304 171.039 243.8C171.039 263.017 187.614 269.215 211.965 269.215C236.317 269.215 259.224 263.017 259.224 243.8C259.224 227.304 242.21 200.833 221.989 193.666Z"
            fill="#2F2E41" />
        <path
            d="M210.461 142.715C209.733 140.864 207.108 140.296 205.087 140.994C202.717 141.813 201.374 143.841 199.085 144.8C194.968 146.524 189.507 145.598 186.369 142.834C182.937 139.812 182.261 135.095 183.988 131.279C185.775 127.332 190.206 124.475 194.95 123.315C201.254 121.773 208.018 123.188 213.478 126.032C213.624 126.101 213.787 126.142 213.954 126.151C214.122 126.161 214.29 126.138 214.445 126.085C214.601 126.032 214.74 125.95 214.852 125.846C214.964 125.741 215.047 125.617 215.093 125.482C216.595 120.682 223.072 119.285 228.277 119.8C233.414 120.391 238.301 122.023 242.514 124.554C250.65 129.304 256.386 137.041 257.19 145.37C257.576 149.654 256.838 153.958 255.029 157.978C253.219 161.999 250.381 165.64 246.713 168.647C244.879 170.128 242.741 171.293 240.871 172.736C239.168 174.051 237.489 175.78 237.523 177.827C237.601 182.532 245.001 183.83 249.381 183.971C254.817 184.175 260.156 182.714 264.399 179.863C268.642 177.012 271.499 172.965 272.435 168.48C272.669 167.388 272.79 166.281 272.797 165.172C272.803 163.988 270.604 163.986 270.598 165.172C270.557 169.644 268.454 173.929 264.728 177.135C262.813 178.743 260.533 180.014 258.022 180.875C255.512 181.735 252.821 182.167 250.109 182.145C246.612 182.13 237.14 180.743 240.315 176.116C241.556 174.306 243.783 173.074 245.703 171.815C247.701 170.502 249.514 169.004 251.11 167.349C254.323 164.03 256.691 160.196 258.069 156.082C259.447 151.969 259.806 147.663 259.123 143.43C257.706 135.133 251.694 127.636 243.515 122.902C235.728 118.394 221.335 114.407 214.529 122.217C213.807 123.053 213.28 123.994 212.973 124.993L214.588 124.443C209.327 121.703 203.056 120.282 196.873 121.075C194.212 121.41 191.66 122.197 189.375 123.386C187.089 124.575 185.118 126.142 183.581 127.99C182.107 129.849 181.205 131.984 180.954 134.205C180.704 136.426 181.113 138.665 182.146 140.722C183.157 142.692 184.824 144.378 186.948 145.578C189.072 146.778 191.563 147.441 194.125 147.49C196.9 147.583 199.63 146.884 201.867 145.507C203.12 144.708 204.082 143.577 205.437 142.896C206.214 142.507 207.959 142.233 208.341 143.204C208.781 144.324 210.905 143.844 210.461 142.715V142.715Z"
            fill="#2F2E41" />
        <path
            d="M260.301 51.8835C265.757 52.1711 271.054 53.5366 275.758 55.8679C280.462 58.1993 284.438 61.4302 287.361 65.2958C288.181 66.3916 289.25 67.5959 288.683 68.9448C288.485 69.462 288.084 69.9078 287.544 70.2093C287.005 70.5109 286.359 70.6504 285.712 70.605C284.04 70.4347 282.961 69.066 282.755 67.7545C282.521 66.2668 283.776 65.099 285.324 64.5462C289.108 63.1955 292.926 65.2829 296.009 66.9488C303.032 70.7447 310.758 74.1776 319.268 74.6102C327.143 75.0104 335.587 72.4269 339.967 66.7131C340.733 65.7135 338.83 64.7898 338.068 65.7845C333.724 71.4511 324.943 73.4864 317.308 72.6105C312.758 72.0097 308.365 70.7616 304.318 68.9202C302.219 68.009 300.184 66.9988 298.19 65.9368C296.292 64.8289 294.281 63.8641 292.179 63.0537C288.675 61.8491 284.035 61.9432 281.587 64.7167C279.303 67.3043 281.068 71.6121 284.888 72.3396C288.508 73.029 291.68 70.1801 290.935 67.2013C290.553 65.6775 289.182 64.1864 288.121 62.9409C284.932 59.187 280.777 56.0796 275.962 53.8475C271.147 51.6154 265.796 50.3155 260.301 50.0435C258.887 49.985 258.89 51.8251 260.301 51.8835L260.301 51.8835Z"
            fill="#CCCCCC" />
        <path
            d="M80.3439 80.7822C74.8877 80.4946 69.5907 79.1292 64.887 76.7978C60.1833 74.4664 56.2069 71.2355 53.2836 67.3699C52.4644 66.2741 51.395 65.0698 51.9621 63.721C52.1596 63.2038 52.561 62.7579 53.1007 62.4564C53.6403 62.1548 54.2862 62.0153 54.9328 62.0607C56.6049 62.2311 57.6839 63.5997 57.8899 64.9112C58.1236 66.3989 56.8693 67.5668 55.3208 68.1195C51.5366 69.4702 47.7187 67.3828 44.6362 65.7169C37.6126 61.921 29.8873 58.4881 21.3766 58.0555C13.5023 57.6553 5.05829 60.2388 0.678478 65.9526C-0.0877861 66.9522 1.81476 67.8759 2.57722 66.8812C6.92094 61.2146 15.702 59.1793 23.3371 60.0552C27.8871 60.656 32.2805 61.9041 36.3271 63.7455C38.4257 64.6568 40.461 65.667 42.4552 66.7289C44.3528 67.8368 46.3642 68.8017 48.4657 69.612C51.9705 70.8167 56.6101 70.7226 59.0582 67.949C61.3421 65.3614 59.5771 61.0536 55.7571 60.3261C52.1369 59.6367 48.9654 62.4856 49.7105 65.4644C50.0916 66.9882 51.4629 68.4793 52.5243 69.7248C55.7134 73.4787 59.8683 76.5861 64.6829 78.8182C69.4976 81.0503 74.8494 82.3502 80.344 82.6222C81.7585 82.6807 81.7548 80.8406 80.344 80.7822L80.3439 80.7822Z"
            fill="#CCCCCC" />
        <path
            d="M333.929 316H105.177C105.018 316 104.865 315.947 104.753 315.853C104.64 315.759 104.577 315.631 104.577 315.498C104.577 315.364 104.64 315.237 104.753 315.142C104.865 315.048 105.018 314.995 105.177 314.995H333.929C334.088 314.995 334.241 315.048 334.354 315.142C334.466 315.237 334.53 315.364 334.53 315.498C334.53 315.631 334.466 315.759 334.354 315.853C334.241 315.947 334.088 316 333.929 316Z"
            fill="#3F3D56" />
    </g>
    <defs>
        <clipPath id="clip0_12_1434">
            <rect width="370" height="316" fill="white" transform="translate(0.5)" />
        </clipPath>
    </defs>
</svg>