<svg width="30" height="30" viewBox="0 0 30 30" fill="none" xmlns="http://www.w3.org/2000/svg">
    <g clip-path="url(#clip0_2588_2871)">
        <path
            d="M15.6982 10.1673C10.9285 8.76978 5.92821 11.5039 4.53071 16.2736C3.1332 21.0434 5.86731 26.0436 10.637 27.4411C15.4068 28.8386 20.407 26.1045 21.8045 21.3348C23.202 16.565 20.4679 11.5648 15.6982 10.1673ZM11.4806 24.5621C8.30074 23.6305 6.478 20.297 7.40967 17.1172C8.34135 13.9373 11.6748 12.1146 14.8547 13.0463C18.0345 13.9779 19.8572 17.3114 18.9256 20.4913C17.9939 23.6711 14.6604 25.4938 11.4806 24.5621Z"
            fill="#9AAAB4" />
        <path
            d="M25.0915 7.44904L23.2669 3.0068L13.1905 0.0544622L9.25712 2.80965L15.2764 11.607L25.0915 7.44904Z"
            fill="#5DADEC" />
        <path
            d="M25.0915 7.44904L23.2669 3.0068L13.1905 0.0544622L9.25712 2.80965L17.1743 5.12934L25.0915 7.44904Z"
            fill="#8CCAF7" />
        <path
            d="M25.0915 7.44917L23.267 3.00693L18.2288 1.53076L17.1744 5.12947L17.8941 5.34035L25.0915 7.44917Z"
            fill="#5DADEC" />
        <path d="M17.1743 5.12891L25.0915 7.4486L15.2764 11.6066L17.1743 5.12891Z" fill="#8CCAF7" />
        <path
            d="M20.5255 12.3635C20.1761 13.5561 18.9263 14.2395 17.7337 13.8901L11.9757 12.2031C10.7831 11.8536 10.0997 10.6038 10.4491 9.41118C10.7986 8.21857 12.0484 7.53517 13.241 7.8846L18.999 9.57165C20.1916 9.92108 20.875 11.1709 20.5255 12.3635Z"
            fill="#9AAAB4" />
    </g>
    <defs>
        <clipPath id="clip0_2588_2871">
            <rect width="30" height="30" fill="white" />
        </clipPath>
    </defs>
</svg>