<svg width="30" height="30" viewBox="0 0 30 30" fill="none" xmlns="http://www.w3.org/2000/svg">
    <path
        d="M15 20.4961C2.865 20.4961 0 24.3828 0 26.1794C0 27.9761 1.4925 29.5128 3.33333 29.5128H26.6667C28.5075 29.5128 30 27.9703 30 26.1794C30 24.3886 27.135 20.4961 15 20.4961Z"
        fill="#78B159" />
    <path
        d="M24.0035 22.9709C24.0035 24.2467 22.9685 24.7042 21.6927 24.7042C20.4168 24.7042 19.3818 24.2475 19.3818 22.9709L19.9593 17.7717C19.9593 16.4959 20.416 16.6159 21.6927 16.6159C22.9685 16.6159 23.426 16.495 23.426 17.7717L24.0035 22.9709Z"
        fill="#662113" />
    <path
        d="M29.0568 15.9435C25.2318 12.4976 23.6827 7.56348 21.6927 7.56348C19.7027 7.56348 18.1535 12.4976 14.3293 15.9435C12.7218 17.3918 13.4877 18.2293 15.691 18.0618C17.6552 17.9126 19.4918 17.4443 21.6927 17.4443C23.8935 17.4443 25.731 17.9135 27.6943 18.0618C29.8977 18.2293 30.6635 17.391 29.0568 15.9435Z"
        fill="#5C913B" />
    <path
        d="M27.8143 14.5778C24.8751 11.7436 23.2235 7.68359 21.6926 7.68359C20.1626 7.68359 18.511 11.7436 15.5718 14.5778C13.236 16.8303 18.6326 17.3353 21.6926 14.5778C24.7518 17.3353 30.1493 16.8303 27.8143 14.5778Z"
        fill="#3E721D" />
    <path
        d="M27.8143 12.2817C24.8751 9.63332 23.2235 5.84082 21.6926 5.84082C20.1626 5.84082 18.511 9.63332 15.5718 12.2817C13.236 14.3858 18.6326 14.8575 21.6926 12.2817C24.7518 14.8575 30.1493 14.385 27.8143 12.2817Z"
        fill="#5C913B" />
    <path
        d="M26.4716 10.4004C24.1774 8.3329 22.8874 5.37207 21.6924 5.37207C20.4982 5.37207 19.2082 8.3329 16.9132 10.4004C15.0899 12.0429 19.3024 12.4121 21.6924 10.4004C24.0816 12.4112 28.2949 12.0429 26.4716 10.4004Z"
        fill="#3E721D" />
    <path
        d="M26.4716 8.6797C24.1774 6.6122 22.8874 3.65137 21.6924 3.65137C20.4982 3.65137 19.2082 6.6122 16.9132 8.6797C15.0899 10.3222 19.3024 10.6914 21.6924 8.6797C24.0816 10.6914 28.2949 10.323 26.4716 8.6797Z"
        fill="#5C913B" />
    <path
        d="M25.549 7.15223C23.6973 5.48389 22.6565 3.09473 21.6923 3.09473C20.7282 3.09473 19.6873 5.48389 17.8357 7.15223C16.364 8.47806 19.764 8.77556 21.6923 7.15223C23.6207 8.77556 27.0215 8.47806 25.549 7.15223Z"
        fill="#3E721D" />
    <path
        d="M25.549 5.85779C23.6973 4.18946 22.6565 1.80029 21.6923 1.80029C20.7282 1.80029 19.6873 4.18946 17.8357 5.85779C16.364 7.18363 19.764 7.48113 21.6923 5.85779C23.6207 7.48113 27.0215 7.18363 25.549 5.85779Z"
        fill="#5C913B" />
    <path
        d="M24.6276 3.95078C23.2193 2.68161 22.4268 0.863281 21.6926 0.863281C20.9593 0.863281 20.1668 2.68161 18.7576 3.95078C17.6376 4.95995 20.2251 5.18578 21.6926 3.95078C23.1601 5.18661 25.7476 4.95995 24.6276 3.95078Z"
        fill="#3E721D" />
    <path
        d="M24.6276 3.0875C23.2193 1.81833 22.4268 0 21.6926 0C20.9593 0 20.1668 1.81833 18.7576 3.0875C17.6376 4.09667 20.2251 4.3225 21.6926 3.0875C23.1601 4.3225 25.7476 4.09667 24.6276 3.0875Z"
        fill="#5C913B" />
    <path
        d="M12.5841 27.0125C12.2308 27.0125 11.9158 26.79 11.7974 26.4575L7.62078 14.7634C7.52911 14.5075 7.56828 14.24 7.72495 14.0167C7.88161 13.7959 8.13661 13.6792 8.40828 13.6792H18.2074C18.5416 13.6792 18.8441 13.8625 18.9758 14.17L23.9874 25.8559C24.0983 26.1142 24.0716 26.4067 23.9174 26.6409C23.7608 26.8759 23.4991 27.0125 23.2183 27.0125H12.5841Z"
        fill="#F4900C" />
    <path
        d="M3.39585 27.0126C3.11502 27.0126 2.85252 26.871 2.69835 26.6376C2.54418 26.4026 2.51835 26.106 2.62835 25.8476L7.64335 14.146C7.77418 13.8393 8.07752 13.6401 8.41085 13.6401C8.74502 13.6401 9.04835 13.8401 9.17918 14.146L14.1942 25.8468C14.305 26.106 14.2775 26.4018 14.1234 26.6368C13.9692 26.871 13.7067 27.0126 13.4259 27.0126H3.39585Z"
        fill="#FFCC4D" />
    <path d="M8.40824 15.709L6.73657 27.0123H10.0782L8.40824 15.709Z" fill="#292F33" />
    <path
        d="M11.7724 26.085L12.1458 27.0125H10.0783L11.7724 26.085ZM5.04326 26.085L4.66992 27.0125H6.73659L5.04326 26.085Z"
        fill="#FFAC33" />
    <path
        d="M10.0784 27.0127C10.0784 27.0127 11.5976 26.6252 12.3401 25.9393L8.40843 15.7093L10.0784 27.0127ZM6.73676 27.0127C6.73676 27.0127 5.2176 26.6252 4.4751 25.9393L8.4076 15.7085L6.73676 27.0127Z"
        fill="#FFE8B6" />
    <path
        d="M11.3542 4.20005C11.3392 4.20005 11.3258 4.20505 11.3108 4.20505C11.3392 4.06839 11.3542 3.92755 11.3542 3.78255C11.3542 2.63172 10.4217 1.69922 9.27083 1.69922C8.52833 1.69922 7.88167 2.09005 7.5125 2.67505C7.28167 2.58672 7.03333 2.53339 6.77083 2.53339C5.70833 2.53339 4.84167 3.33089 4.71333 4.35839C4.47833 4.26422 4.2275 4.20005 3.95833 4.20005C2.8075 4.20005 1.875 5.13255 1.875 6.28339C1.875 7.43422 2.8075 8.36672 3.95833 8.36672H11.3542C12.505 8.36672 13.4375 7.43422 13.4375 6.28339C13.4375 5.13255 12.505 4.20005 11.3542 4.20005Z"
        fill="#E1E8ED" />
</svg>